<?xml version="1.0" encoding="UTF-8"?>
<svg xmlns="http://www.w3.org/2000/svg" xmlns:xlink="http://www.w3.org/1999/xlink" width="355.470825" height="245.940633" viewBox="0 0 355.470825 245.940633" version="1.1">
<defs>
<clipPath id="clip1">
  <path d="M 111 14.664062 L 113 14.664062 L 113 195.867188 L 111 195.867188 Z M 111 14.664062 "/>
</clipPath>
<clipPath id="clip2">
  <path d="M 154 14.664062 L 156 14.664062 L 156 195.867188 L 154 195.867188 Z M 154 14.664062 "/>
</clipPath>
<clipPath id="clip3">
  <path d="M 197 14.664062 L 200 14.664062 L 200 195.867188 L 197 195.867188 Z M 197 14.664062 "/>
</clipPath>
<clipPath id="clip4">
  <path d="M 241 14.664062 L 243 14.664062 L 243 195.867188 L 241 195.867188 Z M 241 14.664062 "/>
</clipPath>
<clipPath id="clip5">
  <path d="M 284 14.664062 L 287 14.664062 L 287 195.867188 L 284 195.867188 Z M 284 14.664062 "/>
</clipPath>
<clipPath id="clip6">
  <path d="M 328 14.664062 L 328.902344 14.664062 L 328.902344 195.867188 L 328 195.867188 Z M 328 14.664062 "/>
</clipPath>
<clipPath id="clip7">
  <path d="M 68.503906 195 L 328.902344 195 L 328.902344 195.867188 L 68.503906 195.867188 Z M 68.503906 195 "/>
</clipPath>
<clipPath id="clip8">
  <path d="M 68.503906 158 L 328.902344 158 L 328.902344 161 L 68.503906 161 Z M 68.503906 158 "/>
</clipPath>
<clipPath id="clip9">
  <path d="M 68.503906 122 L 328.902344 122 L 328.902344 125 L 68.503906 125 Z M 68.503906 122 "/>
</clipPath>
<clipPath id="clip10">
  <path d="M 68.503906 86 L 328.902344 86 L 328.902344 88 L 68.503906 88 Z M 68.503906 86 "/>
</clipPath>
<clipPath id="clip11">
  <path d="M 68.503906 50 L 328.902344 50 L 328.902344 52 L 68.503906 52 Z M 68.503906 50 "/>
</clipPath>
<clipPath id="clip12">
  <path d="M 68.503906 14.664062 L 328.902344 14.664062 L 328.902344 16 L 68.503906 16 Z M 68.503906 14.664062 "/>
</clipPath>
<clipPath id="clip13">
  <path d="M 68.503906 36 L 328.902344 36 L 328.902344 159 L 68.503906 159 Z M 68.503906 36 "/>
</clipPath>
<clipPath id="clip14">
  <path d="M 68.503906 30 L 328.902344 30 L 328.902344 152 L 68.503906 152 Z M 68.503906 30 "/>
</clipPath>
<filter id="alpha" filterUnits="objectBoundingBox" x="0%" y="0%" width="100%" height="100%">
  <feColorMatrix type="matrix" in="SourceGraphic" values="0 0 0 0 1 0 0 0 0 1 0 0 0 0 1 0 0 0 1 0"/>
</filter>
<mask id="mask0">
  <g filter="url(#alpha)">
<rect x="0" y="0" width="355.470825" height="245.940633" style="fill:rgb(0%,0%,0%);fill-opacity:0.8;stroke:none;"/>
  </g>
</mask>
<clipPath id="clip15">
  <rect x="0" y="0" width="356" height="246"/>
</clipPath>
<g id="surface5" clip-path="url(#clip15)">
<path style="fill-rule:nonzero;fill:rgb(100%,100%,100%);fill-opacity:1;stroke-width:1;stroke-linecap:butt;stroke-linejoin:miter;stroke:rgb(80.000001%,80.000001%,80.000001%);stroke-opacity:1;stroke-miterlimit:4;" d="M 184.40332 48.354492 L 239.677734 48.354492 C 241.010742 48.354492 241.678711 47.689453 241.678711 46.356445 L 241.678711 18 C 241.678711 16.666992 241.010742 15.999023 239.677734 15.999023 L 184.40332 15.999023 C 183.070312 15.999023 182.402344 16.666992 182.402344 18 L 182.402344 46.356445 C 182.402344 47.689453 183.070312 48.354492 184.40332 48.354492 Z M 184.40332 48.354492 " transform="matrix(1.333333,0,0,1.333333,0,0.000000000000014211)"/>
</g>
</defs>
<g id="surface1">
<path style=" stroke:none;fill-rule:nonzero;fill:rgb(100%,100%,100%);fill-opacity:1;" d="M 68.503906 195.867188 L 328.902344 195.867188 L 328.902344 14.664062 L 68.503906 14.664062 Z M 68.503906 195.867188 "/>
<g clip-path="url(#clip1)" clip-rule="nonzero">
<path style="fill:none;stroke-width:0.8;stroke-linecap:square;stroke-linejoin:round;stroke:rgb(69.01961%,69.01961%,69.01961%);stroke-opacity:1;stroke-miterlimit:4;" d="M 83.818359 146.900391 L 83.818359 10.998047 " transform="matrix(1.333333,0,0,1.333333,0,0.000000000000014211)"/>
</g>
<path style="fill:none;stroke-width:0.8;stroke-linecap:butt;stroke-linejoin:round;stroke:rgb(0%,0%,0%);stroke-opacity:1;stroke-miterlimit:4;" d="M -0.00119019 0.00117493 L -0.00119019 3.499222 " transform="matrix(1.333333,0,0,1.333333,111.759399,195.865621)"/>
<path style=" stroke:none;fill-rule:nonzero;fill:rgb(0%,0%,0%);fill-opacity:1;" d="M 101.59375 214.222656 L 106.183594 214.222656 L 106.183594 215.332031 L 100.011719 215.332031 L 100.011719 214.222656 C 100.511719 213.707031 101.191406 213.015625 102.050781 212.144531 C 102.914062 211.273438 103.457031 210.710938 103.675781 210.460938 C 104.097656 209.988281 104.390625 209.585938 104.558594 209.257812 C 104.726562 208.929688 104.808594 208.609375 104.808594 208.292969 C 104.808594 207.777344 104.628906 207.355469 104.265625 207.03125 C 103.902344 206.703125 103.429688 206.539062 102.847656 206.539062 C 102.4375 206.539062 102 206.613281 101.542969 206.753906 C 101.085938 206.898438 100.597656 207.117188 100.074219 207.40625 L 100.074219 206.078125 C 100.605469 205.867188 101.101562 205.707031 101.558594 205.597656 C 102.019531 205.488281 102.441406 205.433594 102.824219 205.433594 C 103.832031 205.433594 104.632812 205.6875 105.230469 206.191406 C 105.832031 206.695312 106.128906 207.367188 106.128906 208.207031 C 106.128906 208.605469 106.054688 208.988281 105.90625 209.34375 C 105.757812 209.703125 105.484375 210.125 105.089844 210.609375 C 104.980469 210.734375 104.636719 211.101562 104.054688 211.699219 C 103.472656 212.300781 102.652344 213.144531 101.59375 214.222656 Z M 101.59375 214.222656 "/>
<path style=" stroke:none;fill-rule:nonzero;fill:rgb(0%,0%,0%);fill-opacity:1;" d="M 108.957031 205.609375 L 114.121094 205.609375 L 114.121094 206.71875 L 110.160156 206.71875 L 110.160156 209.097656 C 110.351562 209.035156 110.542969 208.984375 110.730469 208.953125 C 110.921875 208.921875 111.117188 208.90625 111.308594 208.90625 C 112.390625 208.90625 113.25 209.203125 113.882812 209.796875 C 114.519531 210.390625 114.835938 211.195312 114.835938 212.210938 C 114.835938 213.257812 114.511719 214.070312 113.859375 214.652344 C 113.207031 215.230469 112.289062 215.519531 111.105469 215.519531 C 110.695312 215.519531 110.28125 215.484375 109.855469 215.414062 C 109.433594 215.347656 108.996094 215.242188 108.546875 215.101562 L 108.546875 213.78125 C 108.9375 213.992188 109.339844 214.152344 109.757812 214.253906 C 110.171875 214.359375 110.613281 214.410156 111.078125 214.410156 C 111.828125 214.410156 112.421875 214.214844 112.859375 213.820312 C 113.300781 213.425781 113.519531 212.890625 113.519531 212.210938 C 113.519531 211.535156 113.300781 211 112.859375 210.605469 C 112.421875 210.210938 111.828125 210.011719 111.078125 210.011719 C 110.726562 210.011719 110.375 210.050781 110.027344 210.128906 C 109.675781 210.207031 109.320312 210.328125 108.957031 210.492188 Z M 108.957031 205.609375 "/>
<path style=" stroke:none;fill-rule:nonzero;fill:rgb(0%,0%,0%);fill-opacity:1;" d="M 120.238281 206.476562 C 119.5625 206.476562 119.050781 206.808594 118.710938 207.476562 C 118.371094 208.140625 118.199219 209.144531 118.199219 210.480469 C 118.199219 211.8125 118.371094 212.8125 118.710938 213.476562 C 119.050781 214.144531 119.5625 214.476562 120.238281 214.476562 C 120.921875 214.476562 121.429688 214.144531 121.769531 213.476562 C 122.113281 212.8125 122.285156 211.8125 122.285156 210.480469 C 122.285156 209.144531 122.113281 208.140625 121.769531 207.476562 C 121.429688 206.808594 120.921875 206.476562 120.238281 206.476562 Z M 120.238281 205.433594 C 121.328125 205.433594 122.160156 205.867188 122.734375 206.726562 C 123.3125 207.589844 123.597656 208.839844 123.597656 210.480469 C 123.597656 212.117188 123.3125 213.367188 122.734375 214.226562 C 122.160156 215.089844 121.328125 215.519531 120.238281 215.519531 C 119.148438 215.519531 118.316406 215.089844 117.742188 214.226562 C 117.167969 213.367188 116.878906 212.117188 116.878906 210.480469 C 116.878906 208.839844 117.167969 207.589844 117.742188 206.726562 C 118.316406 205.867188 119.148438 205.433594 120.238281 205.433594 Z M 120.238281 205.433594 "/>
<g clip-path="url(#clip2)" clip-rule="nonzero">
<path style="fill:none;stroke-width:0.8;stroke-linecap:square;stroke-linejoin:round;stroke:rgb(69.01961%,69.01961%,69.01961%);stroke-opacity:1;stroke-miterlimit:4;" d="M 116.390625 146.900391 L 116.390625 10.998047 " transform="matrix(1.333333,0,0,1.333333,0,0.000000000000014211)"/>
</g>
<path style="fill:none;stroke-width:0.8;stroke-linecap:butt;stroke-linejoin:round;stroke:rgb(0%,0%,0%);stroke-opacity:1;stroke-miterlimit:4;" d="M -0.000640869 0.00117493 L -0.000640869 3.499222 " transform="matrix(1.333333,0,0,1.333333,155.188354,195.865621)"/>
<path style=" stroke:none;fill-rule:nonzero;fill:rgb(0%,0%,0%);fill-opacity:1;" d="M 143.902344 205.609375 L 149.066406 205.609375 L 149.066406 206.71875 L 145.105469 206.71875 L 145.105469 209.097656 C 145.296875 209.035156 145.488281 208.984375 145.679688 208.953125 C 145.871094 208.921875 146.0625 208.90625 146.253906 208.90625 C 147.335938 208.90625 148.195312 209.203125 148.828125 209.796875 C 149.464844 210.390625 149.78125 211.195312 149.78125 212.210938 C 149.78125 213.257812 149.457031 214.070312 148.804688 214.652344 C 148.152344 215.230469 147.234375 215.519531 146.050781 215.519531 C 145.640625 215.519531 145.226562 215.484375 144.804688 215.414062 C 144.378906 215.347656 143.945312 215.242188 143.492188 215.101562 L 143.492188 213.78125 C 143.882812 213.992188 144.285156 214.152344 144.703125 214.253906 C 145.121094 214.359375 145.558594 214.410156 146.023438 214.410156 C 146.773438 214.410156 147.371094 214.214844 147.808594 213.820312 C 148.246094 213.425781 148.464844 212.890625 148.464844 212.210938 C 148.464844 211.535156 148.246094 211 147.808594 210.605469 C 147.371094 210.210938 146.773438 210.011719 146.023438 210.011719 C 145.671875 210.011719 145.320312 210.050781 144.972656 210.128906 C 144.625 210.207031 144.265625 210.328125 143.902344 210.492188 Z M 143.902344 205.609375 "/>
<path style=" stroke:none;fill-rule:nonzero;fill:rgb(0%,0%,0%);fill-opacity:1;" d="M 155.183594 206.476562 C 154.507812 206.476562 154 206.808594 153.65625 207.476562 C 153.316406 208.140625 153.144531 209.144531 153.144531 210.480469 C 153.144531 211.8125 153.316406 212.8125 153.65625 213.476562 C 154 214.144531 154.507812 214.476562 155.183594 214.476562 C 155.867188 214.476562 156.378906 214.144531 156.71875 213.476562 C 157.058594 212.8125 157.230469 211.8125 157.230469 210.480469 C 157.230469 209.144531 157.058594 208.140625 156.71875 207.476562 C 156.378906 206.808594 155.867188 206.476562 155.183594 206.476562 Z M 155.183594 205.433594 C 156.273438 205.433594 157.105469 205.867188 157.683594 206.726562 C 158.257812 207.589844 158.542969 208.839844 158.542969 210.480469 C 158.542969 212.117188 158.257812 213.367188 157.683594 214.226562 C 157.105469 215.089844 156.273438 215.519531 155.183594 215.519531 C 154.09375 215.519531 153.261719 215.089844 152.6875 214.226562 C 152.113281 213.367188 151.824219 212.117188 151.824219 210.480469 C 151.824219 208.839844 152.113281 207.589844 152.6875 206.726562 C 153.261719 205.867188 154.09375 205.433594 155.183594 205.433594 Z M 155.183594 205.433594 "/>
<path style=" stroke:none;fill-rule:nonzero;fill:rgb(0%,0%,0%);fill-opacity:1;" d="M 163.667969 206.476562 C 162.992188 206.476562 162.480469 206.808594 162.140625 207.476562 C 161.800781 208.140625 161.628906 209.144531 161.628906 210.480469 C 161.628906 211.8125 161.800781 212.8125 162.140625 213.476562 C 162.480469 214.144531 162.992188 214.476562 163.667969 214.476562 C 164.347656 214.476562 164.859375 214.144531 165.199219 213.476562 C 165.542969 212.8125 165.710938 211.8125 165.710938 210.480469 C 165.710938 209.144531 165.542969 208.140625 165.199219 207.476562 C 164.859375 206.808594 164.347656 206.476562 163.667969 206.476562 Z M 163.667969 205.433594 C 164.757812 205.433594 165.589844 205.867188 166.164062 206.726562 C 166.738281 207.589844 167.027344 208.839844 167.027344 210.480469 C 167.027344 212.117188 166.738281 213.367188 166.164062 214.226562 C 165.589844 215.089844 164.757812 215.519531 163.667969 215.519531 C 162.578125 215.519531 161.746094 215.089844 161.171875 214.226562 C 160.597656 213.367188 160.308594 212.117188 160.308594 210.480469 C 160.308594 208.839844 160.597656 207.589844 161.171875 206.726562 C 161.746094 205.867188 162.578125 205.433594 163.667969 205.433594 Z M 163.667969 205.433594 "/>
<g clip-path="url(#clip3)" clip-rule="nonzero">
<path style="fill:none;stroke-width:0.8;stroke-linecap:square;stroke-linejoin:round;stroke:rgb(69.01961%,69.01961%,69.01961%);stroke-opacity:1;stroke-miterlimit:4;" d="M 148.962891 146.900391 L 148.962891 10.998047 " transform="matrix(1.333333,0,0,1.333333,0,0.000000000000014211)"/>
</g>
<path style="fill:none;stroke-width:0.8;stroke-linecap:butt;stroke-linejoin:round;stroke:rgb(0%,0%,0%);stroke-opacity:1;stroke-miterlimit:4;" d="M -0.0000915527 0.00117493 L -0.0000915527 3.499222 " transform="matrix(1.333333,0,0,1.333333,198.61731,195.865621)"/>
<path style=" stroke:none;fill-rule:nonzero;fill:rgb(0%,0%,0%);fill-opacity:1;" d="M 186.984375 205.609375 L 193.234375 205.609375 L 193.234375 206.167969 L 189.707031 215.332031 L 188.332031 215.332031 L 191.65625 206.71875 L 186.984375 206.71875 Z M 186.984375 205.609375 "/>
<path style=" stroke:none;fill-rule:nonzero;fill:rgb(0%,0%,0%);fill-opacity:1;" d="M 195.816406 205.609375 L 200.976562 205.609375 L 200.976562 206.71875 L 197.019531 206.71875 L 197.019531 209.097656 C 197.210938 209.035156 197.398438 208.984375 197.589844 208.953125 C 197.78125 208.921875 197.972656 208.90625 198.164062 208.90625 C 199.25 208.90625 200.109375 209.203125 200.742188 209.796875 C 201.375 210.390625 201.695312 211.195312 201.695312 212.210938 C 201.695312 213.257812 201.367188 214.070312 200.71875 214.652344 C 200.066406 215.230469 199.148438 215.519531 197.960938 215.519531 C 197.554688 215.519531 197.136719 215.484375 196.714844 215.414062 C 196.292969 215.347656 195.855469 215.242188 195.40625 215.101562 L 195.40625 213.78125 C 195.792969 213.992188 196.199219 214.152344 196.613281 214.253906 C 197.03125 214.359375 197.472656 214.410156 197.9375 214.410156 C 198.6875 214.410156 199.28125 214.214844 199.71875 213.820312 C 200.15625 213.425781 200.378906 212.890625 200.378906 212.210938 C 200.378906 211.535156 200.15625 211 199.71875 210.605469 C 199.28125 210.210938 198.6875 210.011719 197.9375 210.011719 C 197.585938 210.011719 197.234375 210.050781 196.882812 210.128906 C 196.535156 210.207031 196.179688 210.328125 195.816406 210.492188 Z M 195.816406 205.609375 "/>
<path style=" stroke:none;fill-rule:nonzero;fill:rgb(0%,0%,0%);fill-opacity:1;" d="M 207.097656 206.476562 C 206.417969 206.476562 205.910156 206.808594 205.570312 207.476562 C 205.230469 208.140625 205.058594 209.144531 205.058594 210.480469 C 205.058594 211.8125 205.230469 212.8125 205.570312 213.476562 C 205.910156 214.144531 206.417969 214.476562 207.097656 214.476562 C 207.777344 214.476562 208.289062 214.144531 208.628906 213.476562 C 208.972656 212.8125 209.140625 211.8125 209.140625 210.480469 C 209.140625 209.144531 208.972656 208.140625 208.628906 207.476562 C 208.289062 206.808594 207.777344 206.476562 207.097656 206.476562 Z M 207.097656 205.433594 C 208.1875 205.433594 209.019531 205.867188 209.59375 206.726562 C 210.167969 207.589844 210.457031 208.839844 210.457031 210.480469 C 210.457031 212.117188 210.167969 213.367188 209.59375 214.226562 C 209.019531 215.089844 208.1875 215.519531 207.097656 215.519531 C 206.007812 215.519531 205.175781 215.089844 204.601562 214.226562 C 204.023438 213.367188 203.738281 212.117188 203.738281 210.480469 C 203.738281 208.839844 204.023438 207.589844 204.601562 206.726562 C 205.175781 205.867188 206.007812 205.433594 207.097656 205.433594 Z M 207.097656 205.433594 "/>
<g clip-path="url(#clip4)" clip-rule="nonzero">
<path style="fill:none;stroke-width:0.8;stroke-linecap:square;stroke-linejoin:round;stroke:rgb(69.01961%,69.01961%,69.01961%);stroke-opacity:1;stroke-miterlimit:4;" d="M 181.535156 146.900391 L 181.535156 10.998047 " transform="matrix(1.333333,0,0,1.333333,0,0.000000000000014211)"/>
</g>
<path style="fill:none;stroke-width:0.8;stroke-linecap:butt;stroke-linejoin:round;stroke:rgb(0%,0%,0%);stroke-opacity:1;stroke-miterlimit:4;" d="M 0.000457764 0.00117493 L 0.000457764 3.499222 " transform="matrix(1.333333,0,0,1.333333,242.046265,195.865621)"/>
<path style=" stroke:none;fill-rule:nonzero;fill:rgb(0%,0%,0%);fill-opacity:1;" d="M 226.734375 214.222656 L 228.882812 214.222656 L 228.882812 206.808594 L 226.542969 207.277344 L 226.542969 206.078125 L 228.871094 205.609375 L 230.183594 205.609375 L 230.183594 214.222656 L 232.332031 214.222656 L 232.332031 215.332031 L 226.734375 215.332031 Z M 226.734375 214.222656 "/>
<path style=" stroke:none;fill-rule:nonzero;fill:rgb(0%,0%,0%);fill-opacity:1;" d="M 237.800781 206.476562 C 237.125 206.476562 236.613281 206.808594 236.273438 207.476562 C 235.933594 208.140625 235.761719 209.144531 235.761719 210.480469 C 235.761719 211.8125 235.933594 212.8125 236.273438 213.476562 C 236.613281 214.144531 237.125 214.476562 237.800781 214.476562 C 238.480469 214.476562 238.992188 214.144531 239.332031 213.476562 C 239.675781 212.8125 239.847656 211.8125 239.847656 210.480469 C 239.847656 209.144531 239.675781 208.140625 239.332031 207.476562 C 238.992188 206.808594 238.480469 206.476562 237.800781 206.476562 Z M 237.800781 205.433594 C 238.890625 205.433594 239.722656 205.867188 240.296875 206.726562 C 240.875 207.589844 241.160156 208.839844 241.160156 210.480469 C 241.160156 212.117188 240.875 213.367188 240.296875 214.226562 C 239.722656 215.089844 238.890625 215.519531 237.800781 215.519531 C 236.710938 215.519531 235.878906 215.089844 235.304688 214.226562 C 234.730469 213.367188 234.441406 212.117188 234.441406 210.480469 C 234.441406 208.839844 234.730469 207.589844 235.304688 206.726562 C 235.878906 205.867188 236.710938 205.433594 237.800781 205.433594 Z M 237.800781 205.433594 "/>
<path style=" stroke:none;fill-rule:nonzero;fill:rgb(0%,0%,0%);fill-opacity:1;" d="M 246.285156 206.476562 C 245.605469 206.476562 245.097656 206.808594 244.757812 207.476562 C 244.414062 208.140625 244.246094 209.144531 244.246094 210.480469 C 244.246094 211.8125 244.414062 212.8125 244.757812 213.476562 C 245.097656 214.144531 245.605469 214.476562 246.285156 214.476562 C 246.964844 214.476562 247.476562 214.144531 247.816406 213.476562 C 248.160156 212.8125 248.328125 211.8125 248.328125 210.480469 C 248.328125 209.144531 248.160156 208.140625 247.816406 207.476562 C 247.476562 206.808594 246.964844 206.476562 246.285156 206.476562 Z M 246.285156 205.433594 C 247.375 205.433594 248.207031 205.867188 248.78125 206.726562 C 249.355469 207.589844 249.644531 208.839844 249.644531 210.480469 C 249.644531 212.117188 249.355469 213.367188 248.78125 214.226562 C 248.207031 215.089844 247.375 215.519531 246.285156 215.519531 C 245.195312 215.519531 244.363281 215.089844 243.789062 214.226562 C 243.210938 213.367188 242.925781 212.117188 242.925781 210.480469 C 242.925781 208.839844 243.210938 207.589844 243.789062 206.726562 C 244.363281 205.867188 245.195312 205.433594 246.285156 205.433594 Z M 246.285156 205.433594 "/>
<path style=" stroke:none;fill-rule:nonzero;fill:rgb(0%,0%,0%);fill-opacity:1;" d="M 254.765625 206.476562 C 254.089844 206.476562 253.582031 206.808594 253.238281 207.476562 C 252.898438 208.140625 252.730469 209.144531 252.730469 210.480469 C 252.730469 211.8125 252.898438 212.8125 253.238281 213.476562 C 253.582031 214.144531 254.089844 214.476562 254.765625 214.476562 C 255.449219 214.476562 255.960938 214.144531 256.300781 213.476562 C 256.640625 212.8125 256.8125 211.8125 256.8125 210.480469 C 256.8125 209.144531 256.640625 208.140625 256.300781 207.476562 C 255.960938 206.808594 255.449219 206.476562 254.765625 206.476562 Z M 254.765625 205.433594 C 255.855469 205.433594 256.6875 205.867188 257.265625 206.726562 C 257.839844 207.589844 258.125 208.839844 258.125 210.480469 C 258.125 212.117188 257.839844 213.367188 257.265625 214.226562 C 256.6875 215.089844 255.855469 215.519531 254.765625 215.519531 C 253.675781 215.519531 252.84375 215.089844 252.269531 214.226562 C 251.695312 213.367188 251.40625 212.117188 251.40625 210.480469 C 251.40625 208.839844 251.695312 207.589844 252.269531 206.726562 C 252.84375 205.867188 253.675781 205.433594 254.765625 205.433594 Z M 254.765625 205.433594 "/>
<g clip-path="url(#clip5)" clip-rule="nonzero">
<path style="fill:none;stroke-width:0.8;stroke-linecap:square;stroke-linejoin:round;stroke:rgb(69.01961%,69.01961%,69.01961%);stroke-opacity:1;stroke-miterlimit:4;" d="M 214.107422 146.900391 L 214.107422 10.998047 " transform="matrix(1.333333,0,0,1.333333,0,0.000000000000014211)"/>
</g>
<path style="fill:none;stroke-width:0.8;stroke-linecap:butt;stroke-linejoin:round;stroke:rgb(0%,0%,0%);stroke-opacity:1;stroke-miterlimit:4;" d="M 0.00100708 0.00117493 L 0.00100708 3.499222 " transform="matrix(1.333333,0,0,1.333333,285.47522,195.865621)"/>
<path style=" stroke:none;fill-rule:nonzero;fill:rgb(0%,0%,0%);fill-opacity:1;" d="M 270.164062 214.222656 L 272.3125 214.222656 L 272.3125 206.808594 L 269.972656 207.277344 L 269.972656 206.078125 L 272.296875 205.609375 L 273.613281 205.609375 L 273.613281 214.222656 L 275.761719 214.222656 L 275.761719 215.332031 L 270.164062 215.332031 Z M 270.164062 214.222656 "/>
<path style=" stroke:none;fill-rule:nonzero;fill:rgb(0%,0%,0%);fill-opacity:1;" d="M 279.550781 214.222656 L 284.140625 214.222656 L 284.140625 215.332031 L 277.96875 215.332031 L 277.96875 214.222656 C 278.46875 213.707031 279.148438 213.015625 280.007812 212.144531 C 280.871094 211.273438 281.414062 210.710938 281.632812 210.460938 C 282.054688 209.988281 282.347656 209.585938 282.515625 209.257812 C 282.683594 208.929688 282.765625 208.609375 282.765625 208.292969 C 282.765625 207.777344 282.585938 207.355469 282.222656 207.03125 C 281.859375 206.703125 281.386719 206.539062 280.804688 206.539062 C 280.394531 206.539062 279.957031 206.613281 279.5 206.753906 C 279.042969 206.898438 278.554688 207.117188 278.035156 207.40625 L 278.035156 206.078125 C 278.5625 205.867188 279.058594 205.707031 279.515625 205.597656 C 279.976562 205.488281 280.398438 205.433594 280.78125 205.433594 C 281.789062 205.433594 282.589844 205.6875 283.191406 206.191406 C 283.789062 206.695312 284.085938 207.367188 284.085938 208.207031 C 284.085938 208.605469 284.011719 208.988281 283.863281 209.34375 C 283.714844 209.703125 283.441406 210.125 283.046875 210.609375 C 282.9375 210.734375 282.59375 211.101562 282.011719 211.699219 C 281.429688 212.300781 280.609375 213.144531 279.550781 214.222656 Z M 279.550781 214.222656 "/>
<path style=" stroke:none;fill-rule:nonzero;fill:rgb(0%,0%,0%);fill-opacity:1;" d="M 286.914062 205.609375 L 292.078125 205.609375 L 292.078125 206.71875 L 288.117188 206.71875 L 288.117188 209.097656 C 288.308594 209.035156 288.5 208.984375 288.6875 208.953125 C 288.882812 208.921875 289.074219 208.90625 289.265625 208.90625 C 290.347656 208.90625 291.207031 209.203125 291.839844 209.796875 C 292.476562 210.390625 292.792969 211.195312 292.792969 212.210938 C 292.792969 213.257812 292.46875 214.070312 291.816406 214.652344 C 291.164062 215.230469 290.246094 215.519531 289.0625 215.519531 C 288.652344 215.519531 288.238281 215.484375 287.8125 215.414062 C 287.390625 215.347656 286.957031 215.242188 286.503906 215.101562 L 286.503906 213.78125 C 286.894531 213.992188 287.296875 214.152344 287.714844 214.253906 C 288.132812 214.359375 288.570312 214.410156 289.035156 214.410156 C 289.785156 214.410156 290.382812 214.214844 290.820312 213.820312 C 291.257812 213.425781 291.476562 212.890625 291.476562 212.210938 C 291.476562 211.535156 291.257812 211 290.820312 210.605469 C 290.382812 210.210938 289.785156 210.011719 289.035156 210.011719 C 288.683594 210.011719 288.332031 210.050781 287.984375 210.128906 C 287.632812 210.207031 287.277344 210.328125 286.914062 210.492188 Z M 286.914062 205.609375 "/>
<path style=" stroke:none;fill-rule:nonzero;fill:rgb(0%,0%,0%);fill-opacity:1;" d="M 298.195312 206.476562 C 297.519531 206.476562 297.011719 206.808594 296.667969 207.476562 C 296.328125 208.140625 296.15625 209.144531 296.15625 210.480469 C 296.15625 211.8125 296.328125 212.8125 296.667969 213.476562 C 297.011719 214.144531 297.519531 214.476562 298.195312 214.476562 C 298.878906 214.476562 299.386719 214.144531 299.730469 213.476562 C 300.070312 212.8125 300.242188 211.8125 300.242188 210.480469 C 300.242188 209.144531 300.070312 208.140625 299.730469 207.476562 C 299.386719 206.808594 298.878906 206.476562 298.195312 206.476562 Z M 298.195312 205.433594 C 299.285156 205.433594 300.117188 205.867188 300.691406 206.726562 C 301.269531 207.589844 301.554688 208.839844 301.554688 210.480469 C 301.554688 212.117188 301.269531 213.367188 300.691406 214.226562 C 300.117188 215.089844 299.285156 215.519531 298.195312 215.519531 C 297.105469 215.519531 296.273438 215.089844 295.699219 214.226562 C 295.125 213.367188 294.835938 212.117188 294.835938 210.480469 C 294.835938 208.839844 295.125 207.589844 295.699219 206.726562 C 296.273438 205.867188 297.105469 205.433594 298.195312 205.433594 Z M 298.195312 205.433594 "/>
<g clip-path="url(#clip6)" clip-rule="nonzero">
<path style="fill:none;stroke-width:0.8;stroke-linecap:square;stroke-linejoin:round;stroke:rgb(69.01961%,69.01961%,69.01961%);stroke-opacity:1;stroke-miterlimit:4;" d="M 246.676758 146.900391 L 246.676758 10.998047 " transform="matrix(1.333333,0,0,1.333333,0,0.000000000000014211)"/>
</g>
<path style="fill:none;stroke-width:0.8;stroke-linecap:butt;stroke-linejoin:round;stroke:rgb(0%,0%,0%);stroke-opacity:1;stroke-miterlimit:4;" d="M -0.00137329 0.00117493 L -0.00137329 3.499222 " transform="matrix(1.333333,0,0,1.333333,328.904175,195.865621)"/>
<path style=" stroke:none;fill-rule:nonzero;fill:rgb(0%,0%,0%);fill-opacity:1;" d="M 313.589844 214.222656 L 315.738281 214.222656 L 315.738281 206.808594 L 313.402344 207.277344 L 313.402344 206.078125 L 315.726562 205.609375 L 317.042969 205.609375 L 317.042969 214.222656 L 319.191406 214.222656 L 319.191406 215.332031 L 313.589844 215.332031 Z M 313.589844 214.222656 "/>
<path style=" stroke:none;fill-rule:nonzero;fill:rgb(0%,0%,0%);fill-opacity:1;" d="M 321.859375 205.609375 L 327.023438 205.609375 L 327.023438 206.71875 L 323.0625 206.71875 L 323.0625 209.097656 C 323.253906 209.035156 323.445312 208.984375 323.636719 208.953125 C 323.828125 208.921875 324.019531 208.90625 324.210938 208.90625 C 325.292969 208.90625 326.152344 209.203125 326.789062 209.796875 C 327.421875 210.390625 327.738281 211.195312 327.738281 212.210938 C 327.738281 213.257812 327.414062 214.070312 326.761719 214.652344 C 326.109375 215.230469 325.191406 215.519531 324.007812 215.519531 C 323.601562 215.519531 323.183594 215.484375 322.761719 215.414062 C 322.339844 215.347656 321.902344 215.242188 321.449219 215.101562 L 321.449219 213.78125 C 321.839844 213.992188 322.242188 214.152344 322.660156 214.253906 C 323.078125 214.359375 323.515625 214.410156 323.980469 214.410156 C 324.730469 214.410156 325.328125 214.214844 325.765625 213.820312 C 326.203125 213.425781 326.421875 212.890625 326.421875 212.210938 C 326.421875 211.535156 326.203125 211 325.765625 210.605469 C 325.328125 210.210938 324.730469 210.011719 323.980469 210.011719 C 323.628906 210.011719 323.277344 210.050781 322.929688 210.128906 C 322.582031 210.207031 322.222656 210.328125 321.859375 210.492188 Z M 321.859375 205.609375 "/>
<path style=" stroke:none;fill-rule:nonzero;fill:rgb(0%,0%,0%);fill-opacity:1;" d="M 333.140625 206.476562 C 332.464844 206.476562 331.957031 206.808594 331.613281 207.476562 C 331.273438 208.140625 331.105469 209.144531 331.105469 210.480469 C 331.105469 211.8125 331.273438 212.8125 331.613281 213.476562 C 331.957031 214.144531 332.464844 214.476562 333.140625 214.476562 C 333.824219 214.476562 334.335938 214.144531 334.675781 213.476562 C 335.015625 212.8125 335.1875 211.8125 335.1875 210.480469 C 335.1875 209.144531 335.015625 208.140625 334.675781 207.476562 C 334.335938 206.808594 333.824219 206.476562 333.140625 206.476562 Z M 333.140625 205.433594 C 334.230469 205.433594 335.0625 205.867188 335.640625 206.726562 C 336.214844 207.589844 336.5 208.839844 336.5 210.480469 C 336.5 212.117188 336.214844 213.367188 335.640625 214.226562 C 335.0625 215.089844 334.230469 215.519531 333.140625 215.519531 C 332.050781 215.519531 331.21875 215.089844 330.644531 214.226562 C 330.070312 213.367188 329.78125 212.117188 329.78125 210.480469 C 329.78125 208.839844 330.070312 207.589844 330.644531 206.726562 C 331.21875 205.867188 332.050781 205.433594 333.140625 205.433594 Z M 333.140625 205.433594 "/>
<path style=" stroke:none;fill-rule:nonzero;fill:rgb(0%,0%,0%);fill-opacity:1;" d="M 341.625 206.476562 C 340.949219 206.476562 340.4375 206.808594 340.097656 207.476562 C 339.757812 208.140625 339.585938 209.144531 339.585938 210.480469 C 339.585938 211.8125 339.757812 212.8125 340.097656 213.476562 C 340.4375 214.144531 340.949219 214.476562 341.625 214.476562 C 342.304688 214.476562 342.816406 214.144531 343.15625 213.476562 C 343.5 212.8125 343.671875 211.8125 343.671875 210.480469 C 343.671875 209.144531 343.5 208.140625 343.15625 207.476562 C 342.816406 206.808594 342.304688 206.476562 341.625 206.476562 Z M 341.625 205.433594 C 342.714844 205.433594 343.546875 205.867188 344.121094 206.726562 C 344.695312 207.589844 344.984375 208.839844 344.984375 210.480469 C 344.984375 212.117188 344.695312 213.367188 344.121094 214.226562 C 343.546875 215.089844 342.714844 215.519531 341.625 215.519531 C 340.535156 215.519531 339.703125 215.089844 339.128906 214.226562 C 338.554688 213.367188 338.265625 212.117188 338.265625 210.480469 C 338.265625 208.839844 338.554688 207.589844 339.128906 206.726562 C 339.703125 205.867188 340.535156 205.433594 341.625 205.433594 Z M 341.625 205.433594 "/>
<path style=" stroke:none;fill-rule:nonzero;fill:rgb(0%,0%,0%);fill-opacity:1;" d="M 185.894531 229.621094 L 185.894531 230.207031 L 180.386719 230.207031 C 180.4375 231.03125 180.6875 231.660156 181.132812 232.09375 C 181.574219 232.523438 182.195312 232.742188 182.988281 232.742188 C 183.449219 232.742188 183.894531 232.683594 184.328125 232.570312 C 184.757812 232.460938 185.1875 232.289062 185.613281 232.0625 L 185.613281 233.195312 C 185.183594 233.378906 184.742188 233.519531 184.292969 233.613281 C 183.839844 233.710938 183.382812 233.757812 182.917969 233.757812 C 181.753906 233.757812 180.832031 233.417969 180.152344 232.742188 C 179.476562 232.066406 179.136719 231.148438 179.136719 229.992188 C 179.136719 228.800781 179.457031 227.851562 180.101562 227.152344 C 180.746094 226.453125 181.617188 226.101562 182.710938 226.101562 C 183.691406 226.101562 184.464844 226.417969 185.039062 227.050781 C 185.609375 227.679688 185.894531 228.539062 185.894531 229.621094 Z M 184.695312 229.269531 C 184.6875 228.617188 184.503906 228.09375 184.144531 227.703125 C 183.789062 227.3125 183.3125 227.117188 182.722656 227.117188 C 182.054688 227.117188 181.519531 227.304688 181.117188 227.683594 C 180.71875 228.058594 180.484375 228.59375 180.425781 229.277344 Z M 184.695312 229.269531 "/>
<path style=" stroke:none;fill-rule:nonzero;fill:rgb(0%,0%,0%);fill-opacity:1;" d="M 189.019531 232.472656 L 189.019531 236.339844 L 187.8125 236.339844 L 187.8125 226.277344 L 189.019531 226.277344 L 189.019531 227.382812 C 189.269531 226.949219 189.589844 226.628906 189.972656 226.417969 C 190.355469 226.207031 190.816406 226.101562 191.347656 226.101562 C 192.234375 226.101562 192.953125 226.453125 193.507812 227.15625 C 194.0625 227.859375 194.339844 228.78125 194.339844 229.929688 C 194.339844 231.074219 194.0625 232 193.507812 232.703125 C 192.953125 233.40625 192.234375 233.757812 191.347656 233.757812 C 190.816406 233.757812 190.355469 233.652344 189.972656 233.441406 C 189.589844 233.230469 189.269531 232.90625 189.019531 232.472656 Z M 193.09375 229.929688 C 193.09375 229.046875 192.914062 228.355469 192.550781 227.855469 C 192.1875 227.355469 191.691406 227.101562 191.058594 227.101562 C 190.421875 227.101562 189.925781 227.355469 189.5625 227.855469 C 189.199219 228.355469 189.019531 229.046875 189.019531 229.929688 C 189.019531 230.808594 189.199219 231.5 189.5625 232 C 189.925781 232.503906 190.421875 232.753906 191.058594 232.753906 C 191.691406 232.753906 192.1875 232.503906 192.550781 232 C 192.914062 231.5 193.09375 230.808594 193.09375 229.929688 Z M 193.09375 229.929688 "/>
<path style=" stroke:none;fill-rule:nonzero;fill:rgb(0%,0%,0%);fill-opacity:1;" d="M 199.148438 227.117188 C 198.507812 227.117188 198 227.367188 197.625 227.867188 C 197.25 228.367188 197.066406 229.054688 197.066406 229.929688 C 197.066406 230.800781 197.25 231.488281 197.621094 231.988281 C 197.992188 232.488281 198.503906 232.742188 199.148438 232.742188 C 199.785156 232.742188 200.292969 232.488281 200.664062 231.988281 C 201.039062 231.480469 201.226562 230.796875 201.226562 229.929688 C 201.226562 229.0625 201.039062 228.378906 200.664062 227.875 C 200.292969 227.367188 199.785156 227.117188 199.148438 227.117188 Z M 199.148438 226.101562 C 200.191406 226.101562 201.007812 226.441406 201.601562 227.117188 C 202.199219 227.792969 202.496094 228.730469 202.496094 229.929688 C 202.496094 231.121094 202.199219 232.058594 201.601562 232.738281 C 201.007812 233.417969 200.191406 233.757812 199.148438 233.757812 C 198.101562 233.757812 197.28125 233.417969 196.691406 232.738281 C 196.097656 232.058594 195.800781 231.121094 195.800781 229.929688 C 195.800781 228.730469 196.097656 227.792969 196.691406 227.117188 C 197.28125 226.441406 198.101562 226.101562 199.148438 226.101562 Z M 199.148438 226.101562 "/>
<path style=" stroke:none;fill-rule:nonzero;fill:rgb(0%,0%,0%);fill-opacity:1;" d="M 209.726562 226.554688 L 209.726562 227.675781 C 209.390625 227.488281 209.050781 227.347656 208.710938 227.253906 C 208.371094 227.164062 208.027344 227.117188 207.679688 227.117188 C 206.902344 227.117188 206.296875 227.363281 205.867188 227.855469 C 205.4375 228.347656 205.222656 229.039062 205.222656 229.929688 C 205.222656 230.820312 205.4375 231.511719 205.867188 232.003906 C 206.296875 232.496094 206.902344 232.742188 207.679688 232.742188 C 208.027344 232.742188 208.371094 232.695312 208.710938 232.601562 C 209.050781 232.507812 209.390625 232.367188 209.726562 232.179688 L 209.726562 233.289062 C 209.394531 233.445312 209.046875 233.5625 208.6875 233.636719 C 208.332031 233.71875 207.953125 233.757812 207.546875 233.757812 C 206.449219 233.757812 205.574219 233.414062 204.929688 232.722656 C 204.28125 232.03125 203.960938 231.101562 203.960938 229.929688 C 203.960938 228.738281 204.285156 227.804688 204.9375 227.125 C 205.59375 226.441406 206.488281 226.101562 207.625 226.101562 C 207.996094 226.101562 208.355469 226.140625 208.707031 226.214844 C 209.058594 226.289062 209.398438 226.402344 209.726562 226.554688 Z M 209.726562 226.554688 "/>
<path style=" stroke:none;fill-rule:nonzero;fill:rgb(0%,0%,0%);fill-opacity:1;" d="M 217.875 229.164062 L 217.875 233.566406 L 216.675781 233.566406 L 216.675781 229.207031 C 216.675781 228.515625 216.542969 228 216.273438 227.65625 C 216.003906 227.3125 215.597656 227.144531 215.0625 227.144531 C 214.414062 227.144531 213.902344 227.347656 213.53125 227.761719 C 213.15625 228.171875 212.96875 228.734375 212.96875 229.445312 L 212.96875 233.566406 L 211.765625 233.566406 L 211.765625 223.4375 L 212.96875 223.4375 L 212.96875 227.410156 C 213.257812 226.96875 213.59375 226.644531 213.980469 226.425781 C 214.371094 226.210938 214.820312 226.101562 215.328125 226.101562 C 216.164062 226.101562 216.796875 226.359375 217.226562 226.878906 C 217.660156 227.394531 217.875 228.160156 217.875 229.164062 Z M 217.875 229.164062 "/>
<g clip-path="url(#clip7)" clip-rule="nonzero">
<path style="fill:none;stroke-width:0.8;stroke-linecap:square;stroke-linejoin:round;stroke:rgb(69.01961%,69.01961%,69.01961%);stroke-opacity:1;stroke-miterlimit:4;" d="M 51.37793 146.900391 L 246.676758 146.900391 " transform="matrix(1.333333,0,0,1.333333,0,0.000000000000014211)"/>
</g>
<path style="fill:none;stroke-width:0.8;stroke-linecap:butt;stroke-linejoin:round;stroke:rgb(0%,0%,0%);stroke-opacity:1;stroke-miterlimit:4;" d="M -0.00019455 0.00117493 L -3.501171 0.00117493 " transform="matrix(1.333333,0,0,1.333333,68.504166,195.865621)"/>
<path style=" stroke:none;fill-rule:nonzero;fill:rgb(0%,0%,0%);fill-opacity:1;" d="M 29.492188 199.722656 L 31.640625 199.722656 L 31.640625 192.304688 L 29.300781 192.773438 L 29.300781 191.578125 L 31.628906 191.109375 L 32.941406 191.109375 L 32.941406 199.722656 L 35.089844 199.722656 L 35.089844 200.828125 L 29.492188 200.828125 Z M 29.492188 199.722656 "/>
<path style=" stroke:none;fill-rule:nonzero;fill:rgb(0%,0%,0%);fill-opacity:1;" d="M 40.558594 191.976562 C 39.882812 191.976562 39.371094 192.308594 39.03125 192.976562 C 38.691406 193.640625 38.519531 194.640625 38.519531 195.980469 C 38.519531 197.3125 38.691406 198.308594 39.03125 198.976562 C 39.371094 199.644531 39.882812 199.976562 40.558594 199.976562 C 41.238281 199.976562 41.75 199.644531 42.089844 198.976562 C 42.433594 198.308594 42.605469 197.3125 42.605469 195.980469 C 42.605469 194.640625 42.433594 193.640625 42.089844 192.976562 C 41.75 192.308594 41.238281 191.976562 40.558594 191.976562 Z M 40.558594 190.933594 C 41.648438 190.933594 42.480469 191.363281 43.054688 192.226562 C 43.632812 193.089844 43.917969 194.339844 43.917969 195.980469 C 43.917969 197.617188 43.632812 198.863281 43.054688 199.726562 C 42.480469 200.589844 41.648438 201.019531 40.558594 201.019531 C 39.46875 201.019531 38.636719 200.589844 38.0625 199.726562 C 37.488281 198.863281 37.199219 197.617188 37.199219 195.980469 C 37.199219 194.339844 37.488281 193.089844 38.0625 192.226562 C 38.636719 191.363281 39.46875 190.933594 40.558594 190.933594 Z M 40.558594 190.933594 "/>
<path style=" stroke:none;fill-rule:nonzero;fill:rgb(0%,0%,0%);fill-opacity:1;" d="M 45.921875 192.410156 L 51.761719 192.410156 L 51.761719 193.1875 L 45.921875 193.1875 Z M 45.921875 192.410156 "/>
<path style=" stroke:none;fill-rule:nonzero;fill:rgb(0%,0%,0%);fill-opacity:1;" d="M 56.539062 192.054688 C 56.980469 192.148438 57.324219 192.347656 57.570312 192.644531 C 57.816406 192.941406 57.941406 193.308594 57.941406 193.746094 C 57.941406 194.417969 57.710938 194.9375 57.25 195.304688 C 56.789062 195.675781 56.132812 195.859375 55.28125 195.859375 C 54.996094 195.859375 54.703125 195.828125 54.398438 195.773438 C 54.097656 195.714844 53.785156 195.632812 53.464844 195.519531 L 53.464844 194.632812 C 53.71875 194.78125 53.996094 194.890625 54.300781 194.96875 C 54.605469 195.042969 54.921875 195.082031 55.253906 195.082031 C 55.832031 195.082031 56.269531 194.96875 56.574219 194.742188 C 56.875 194.511719 57.027344 194.183594 57.027344 193.746094 C 57.027344 193.347656 56.886719 193.03125 56.605469 192.808594 C 56.324219 192.582031 55.933594 192.46875 55.433594 192.46875 L 54.636719 192.46875 L 54.636719 191.710938 L 55.46875 191.710938 C 55.921875 191.710938 56.265625 191.621094 56.507812 191.4375 C 56.746094 191.257812 56.867188 190.996094 56.867188 190.65625 C 56.867188 190.308594 56.742188 190.039062 56.496094 189.855469 C 56.25 189.667969 55.894531 189.574219 55.433594 189.574219 C 55.179688 189.574219 54.910156 189.601562 54.621094 189.65625 C 54.332031 189.710938 54.011719 189.792969 53.667969 189.910156 L 53.667969 189.089844 C 54.015625 188.992188 54.34375 188.917969 54.648438 188.871094 C 54.957031 188.820312 55.242188 188.796875 55.511719 188.796875 C 56.210938 188.796875 56.765625 188.957031 57.171875 189.273438 C 57.578125 189.589844 57.78125 190.019531 57.78125 190.5625 C 57.78125 190.9375 57.675781 191.257812 57.460938 191.515625 C 57.242188 191.777344 56.9375 191.957031 56.539062 192.054688 Z M 56.539062 192.054688 "/>
<g clip-path="url(#clip8)" clip-rule="nonzero">
<path style="fill:none;stroke-width:0.8;stroke-linecap:square;stroke-linejoin:round;stroke:rgb(69.01961%,69.01961%,69.01961%);stroke-opacity:1;stroke-miterlimit:4;" d="M 51.37793 119.71875 L 246.676758 119.71875 " transform="matrix(1.333333,0,0,1.333333,0,0.000000000000014211)"/>
</g>
<path style="fill:none;stroke-width:0.8;stroke-linecap:butt;stroke-linejoin:round;stroke:rgb(0%,0%,0%);stroke-opacity:1;stroke-miterlimit:4;" d="M -0.00019455 -0.000465393 L -3.501171 -0.000465393 " transform="matrix(1.333333,0,0,1.333333,68.504166,159.625621)"/>
<path style=" stroke:none;fill-rule:nonzero;fill:rgb(0%,0%,0%);fill-opacity:1;" d="M 29.492188 163.484375 L 31.640625 163.484375 L 31.640625 156.066406 L 29.300781 156.535156 L 29.300781 155.335938 L 31.628906 154.867188 L 32.941406 154.867188 L 32.941406 163.484375 L 35.089844 163.484375 L 35.089844 164.589844 L 29.492188 164.589844 Z M 29.492188 163.484375 "/>
<path style=" stroke:none;fill-rule:nonzero;fill:rgb(0%,0%,0%);fill-opacity:1;" d="M 40.558594 155.734375 C 39.882812 155.734375 39.371094 156.066406 39.03125 156.734375 C 38.691406 157.398438 38.519531 158.402344 38.519531 159.738281 C 38.519531 161.070312 38.691406 162.070312 39.03125 162.738281 C 39.371094 163.402344 39.882812 163.738281 40.558594 163.738281 C 41.238281 163.738281 41.75 163.402344 42.089844 162.738281 C 42.433594 162.070312 42.605469 161.070312 42.605469 159.738281 C 42.605469 158.402344 42.433594 157.398438 42.089844 156.734375 C 41.75 156.066406 41.238281 155.734375 40.558594 155.734375 Z M 40.558594 154.691406 C 41.648438 154.691406 42.480469 155.125 43.054688 155.988281 C 43.632812 156.847656 43.917969 158.097656 43.917969 159.738281 C 43.917969 161.375 43.632812 162.625 43.054688 163.488281 C 42.480469 164.347656 41.648438 164.777344 40.558594 164.777344 C 39.46875 164.777344 38.636719 164.347656 38.0625 163.488281 C 37.488281 162.625 37.199219 161.375 37.199219 159.738281 C 37.199219 158.097656 37.488281 156.847656 38.0625 155.988281 C 38.636719 155.125 39.46875 154.691406 40.558594 154.691406 Z M 40.558594 154.691406 "/>
<path style=" stroke:none;fill-rule:nonzero;fill:rgb(0%,0%,0%);fill-opacity:1;" d="M 45.921875 156.171875 L 51.761719 156.171875 L 51.761719 156.945312 L 45.921875 156.945312 Z M 45.921875 156.171875 "/>
<path style=" stroke:none;fill-rule:nonzero;fill:rgb(0%,0%,0%);fill-opacity:1;" d="M 54.542969 158.710938 L 57.753906 158.710938 L 57.753906 159.484375 L 53.433594 159.484375 L 53.433594 158.710938 C 53.785156 158.347656 54.261719 157.863281 54.863281 157.253906 C 55.46875 156.644531 55.847656 156.253906 56 156.074219 C 56.296875 155.746094 56.5 155.464844 56.617188 155.234375 C 56.734375 155.007812 56.792969 154.78125 56.792969 154.558594 C 56.792969 154.195312 56.667969 153.902344 56.414062 153.675781 C 56.160156 153.445312 55.828125 153.332031 55.421875 153.332031 C 55.132812 153.332031 54.828125 153.382812 54.507812 153.484375 C 54.1875 153.582031 53.84375 153.734375 53.480469 153.9375 L 53.480469 153.007812 C 53.851562 152.859375 54.195312 152.746094 54.519531 152.671875 C 54.84375 152.597656 55.136719 152.558594 55.402344 152.558594 C 56.109375 152.558594 56.671875 152.734375 57.089844 153.085938 C 57.507812 153.4375 57.71875 153.910156 57.71875 154.5 C 57.71875 154.777344 57.667969 155.042969 57.5625 155.296875 C 57.457031 155.546875 57.265625 155.839844 56.988281 156.179688 C 56.914062 156.269531 56.671875 156.523438 56.265625 156.945312 C 55.859375 157.367188 55.285156 157.953125 54.542969 158.710938 Z M 54.542969 158.710938 "/>
<g clip-path="url(#clip9)" clip-rule="nonzero">
<path style="fill:none;stroke-width:0.8;stroke-linecap:square;stroke-linejoin:round;stroke:rgb(69.01961%,69.01961%,69.01961%);stroke-opacity:1;stroke-miterlimit:4;" d="M 51.37793 92.540039 L 246.676758 92.540039 " transform="matrix(1.333333,0,0,1.333333,0,0.000000000000014211)"/>
</g>
<path style="fill:none;stroke-width:0.8;stroke-linecap:butt;stroke-linejoin:round;stroke:rgb(0%,0%,0%);stroke-opacity:1;stroke-miterlimit:4;" d="M -0.00019455 0.000816345 L -3.501171 0.000816345 " transform="matrix(1.333333,0,0,1.333333,68.504166,123.38563)"/>
<path style=" stroke:none;fill-rule:nonzero;fill:rgb(0%,0%,0%);fill-opacity:1;" d="M 29.492188 127.253906 L 31.640625 127.253906 L 31.640625 119.835938 L 29.300781 120.304688 L 29.300781 119.109375 L 31.628906 118.640625 L 32.941406 118.640625 L 32.941406 127.253906 L 35.089844 127.253906 L 35.089844 128.359375 L 29.492188 128.359375 Z M 29.492188 127.253906 "/>
<path style=" stroke:none;fill-rule:nonzero;fill:rgb(0%,0%,0%);fill-opacity:1;" d="M 40.558594 119.503906 C 39.882812 119.503906 39.371094 119.839844 39.03125 120.503906 C 38.691406 121.171875 38.519531 122.171875 38.519531 123.511719 C 38.519531 124.84375 38.691406 125.839844 39.03125 126.507812 C 39.371094 127.175781 39.882812 127.507812 40.558594 127.507812 C 41.238281 127.507812 41.75 127.175781 42.089844 126.507812 C 42.433594 125.839844 42.605469 124.84375 42.605469 123.511719 C 42.605469 122.171875 42.433594 121.171875 42.089844 120.503906 C 41.75 119.839844 41.238281 119.503906 40.558594 119.503906 Z M 40.558594 118.464844 C 41.648438 118.464844 42.480469 118.894531 43.054688 119.757812 C 43.632812 120.617188 43.917969 121.871094 43.917969 123.511719 C 43.917969 125.144531 43.632812 126.394531 43.054688 127.257812 C 42.480469 128.117188 41.648438 128.550781 40.558594 128.550781 C 39.46875 128.550781 38.636719 128.117188 38.0625 127.257812 C 37.488281 126.394531 37.199219 125.144531 37.199219 123.511719 C 37.199219 121.871094 37.488281 120.617188 38.0625 119.757812 C 38.636719 118.894531 39.46875 118.464844 40.558594 118.464844 Z M 40.558594 118.464844 "/>
<path style=" stroke:none;fill-rule:nonzero;fill:rgb(0%,0%,0%);fill-opacity:1;" d="M 45.921875 119.941406 L 51.761719 119.941406 L 51.761719 120.71875 L 45.921875 120.71875 Z M 45.921875 119.941406 "/>
<path style=" stroke:none;fill-rule:nonzero;fill:rgb(0%,0%,0%);fill-opacity:1;" d="M 53.910156 122.480469 L 55.414062 122.480469 L 55.414062 117.289062 L 53.777344 117.617188 L 53.777344 116.78125 L 55.402344 116.453125 L 56.324219 116.453125 L 56.324219 122.480469 L 57.828125 122.480469 L 57.828125 123.253906 L 53.910156 123.253906 Z M 53.910156 122.480469 "/>
<g clip-path="url(#clip10)" clip-rule="nonzero">
<path style="fill:none;stroke-width:0.8;stroke-linecap:square;stroke-linejoin:round;stroke:rgb(69.01961%,69.01961%,69.01961%);stroke-opacity:1;stroke-miterlimit:4;" d="M 51.37793 65.358398 L 246.676758 65.358398 " transform="matrix(1.333333,0,0,1.333333,0,0.000000000000014211)"/>
</g>
<path style="fill:none;stroke-width:0.8;stroke-linecap:butt;stroke-linejoin:round;stroke:rgb(0%,0%,0%);stroke-opacity:1;stroke-miterlimit:4;" d="M -0.00019455 -0.000823975 L -3.501171 -0.000823975 " transform="matrix(1.333333,0,0,1.333333,68.504166,87.14563)"/>
<path style=" stroke:none;fill-rule:nonzero;fill:rgb(0%,0%,0%);fill-opacity:1;" d="M 37.359375 91.003906 L 39.507812 91.003906 L 39.507812 83.585938 L 37.167969 84.054688 L 37.167969 82.855469 L 39.492188 82.386719 L 40.808594 82.386719 L 40.808594 91.003906 L 42.957031 91.003906 L 42.957031 92.109375 L 37.359375 92.109375 Z M 37.359375 91.003906 "/>
<path style=" stroke:none;fill-rule:nonzero;fill:rgb(0%,0%,0%);fill-opacity:1;" d="M 48.425781 83.253906 C 47.75 83.253906 47.238281 83.589844 46.898438 84.253906 C 46.558594 84.921875 46.386719 85.921875 46.386719 87.257812 C 46.386719 88.589844 46.558594 89.589844 46.898438 90.257812 C 47.238281 90.921875 47.75 91.257812 48.425781 91.257812 C 49.105469 91.257812 49.617188 90.921875 49.957031 90.257812 C 50.300781 89.589844 50.46875 88.589844 50.46875 87.257812 C 50.46875 85.921875 50.300781 84.921875 49.957031 84.253906 C 49.617188 83.589844 49.105469 83.253906 48.425781 83.253906 Z M 48.425781 82.214844 C 49.515625 82.214844 50.347656 82.644531 50.921875 83.507812 C 51.496094 84.367188 51.785156 85.617188 51.785156 87.257812 C 51.785156 88.894531 51.496094 90.144531 50.921875 91.007812 C 50.347656 91.867188 49.515625 92.296875 48.425781 92.296875 C 47.335938 92.296875 46.503906 91.867188 45.929688 91.007812 C 45.355469 90.144531 45.066406 88.894531 45.066406 87.257812 C 45.066406 85.617188 45.355469 84.367188 45.929688 83.507812 C 46.503906 82.644531 47.335938 82.214844 48.425781 82.214844 Z M 48.425781 82.214844 "/>
<path style=" stroke:none;fill-rule:nonzero;fill:rgb(0%,0%,0%);fill-opacity:1;" d="M 55.765625 80.808594 C 55.289062 80.808594 54.933594 81.039062 54.695312 81.507812 C 54.457031 81.972656 54.339844 82.671875 54.339844 83.609375 C 54.339844 84.542969 54.457031 85.242188 54.695312 85.707031 C 54.933594 86.175781 55.289062 86.410156 55.765625 86.410156 C 56.242188 86.410156 56.597656 86.175781 56.835938 85.707031 C 57.078125 85.242188 57.195312 84.542969 57.195312 83.609375 C 57.195312 82.671875 57.078125 81.972656 56.835938 81.507812 C 56.597656 81.039062 56.242188 80.808594 55.765625 80.808594 Z M 55.765625 80.078125 C 56.527344 80.078125 57.109375 80.378906 57.511719 80.984375 C 57.914062 81.585938 58.117188 82.460938 58.117188 83.609375 C 58.117188 84.753906 57.914062 85.628906 57.511719 86.234375 C 57.109375 86.835938 56.527344 87.136719 55.765625 87.136719 C 55 87.136719 54.417969 86.835938 54.015625 86.234375 C 53.613281 85.628906 53.414062 84.753906 53.414062 83.609375 C 53.414062 82.460938 53.613281 81.585938 54.015625 80.984375 C 54.417969 80.378906 55 80.078125 55.765625 80.078125 Z M 55.765625 80.078125 "/>
<g clip-path="url(#clip11)" clip-rule="nonzero">
<path style="fill:none;stroke-width:0.8;stroke-linecap:square;stroke-linejoin:round;stroke:rgb(69.01961%,69.01961%,69.01961%);stroke-opacity:1;stroke-miterlimit:4;" d="M 51.37793 38.179687 L 246.676758 38.179687 " transform="matrix(1.333333,0,0,1.333333,0,0.000000000000014211)"/>
</g>
<path style="fill:none;stroke-width:0.8;stroke-linecap:butt;stroke-linejoin:round;stroke:rgb(0%,0%,0%);stroke-opacity:1;stroke-miterlimit:4;" d="M -0.00019455 0.000469208 L -3.501171 0.000469208 " transform="matrix(1.333333,0,0,1.333333,68.504166,50.905624)"/>
<path style=" stroke:none;fill-rule:nonzero;fill:rgb(0%,0%,0%);fill-opacity:1;" d="M 37.359375 54.773438 L 39.507812 54.773438 L 39.507812 47.355469 L 37.167969 47.824219 L 37.167969 46.628906 L 39.492188 46.160156 L 40.808594 46.160156 L 40.808594 54.773438 L 42.957031 54.773438 L 42.957031 55.878906 L 37.359375 55.878906 Z M 37.359375 54.773438 "/>
<path style=" stroke:none;fill-rule:nonzero;fill:rgb(0%,0%,0%);fill-opacity:1;" d="M 48.425781 47.027344 C 47.75 47.027344 47.238281 47.359375 46.898438 48.027344 C 46.558594 48.691406 46.386719 49.691406 46.386719 51.03125 C 46.386719 52.363281 46.558594 53.359375 46.898438 54.027344 C 47.238281 54.695312 47.75 55.027344 48.425781 55.027344 C 49.105469 55.027344 49.617188 54.695312 49.957031 54.027344 C 50.300781 53.359375 50.46875 52.363281 50.46875 51.03125 C 50.46875 49.691406 50.300781 48.691406 49.957031 48.027344 C 49.617188 47.359375 49.105469 47.027344 48.425781 47.027344 Z M 48.425781 45.984375 C 49.515625 45.984375 50.347656 46.414062 50.921875 47.277344 C 51.496094 48.140625 51.785156 49.390625 51.785156 51.03125 C 51.785156 52.667969 51.496094 53.914062 50.921875 54.777344 C 50.347656 55.640625 49.515625 56.070312 48.425781 56.070312 C 47.335938 56.070312 46.503906 55.640625 45.929688 54.777344 C 45.355469 53.914062 45.066406 52.667969 45.066406 51.03125 C 45.066406 49.390625 45.355469 48.140625 45.929688 47.277344 C 46.503906 46.414062 47.335938 45.984375 48.425781 45.984375 Z M 48.425781 45.984375 "/>
<path style=" stroke:none;fill-rule:nonzero;fill:rgb(0%,0%,0%);fill-opacity:1;" d="M 53.957031 50 L 55.460938 50 L 55.460938 44.808594 L 53.824219 45.136719 L 53.824219 44.300781 L 55.449219 43.972656 L 56.371094 43.972656 L 56.371094 50 L 57.875 50 L 57.875 50.777344 L 53.957031 50.777344 Z M 53.957031 50 "/>
<g clip-path="url(#clip12)" clip-rule="nonzero">
<path style="fill:none;stroke-width:0.8;stroke-linecap:square;stroke-linejoin:round;stroke:rgb(69.01961%,69.01961%,69.01961%);stroke-opacity:1;stroke-miterlimit:4;" d="M 51.37793 10.998047 L 246.676758 10.998047 " transform="matrix(1.333333,0,0,1.333333,0,0.000000000000014211)"/>
</g>
<path style="fill:none;stroke-width:0.8;stroke-linecap:butt;stroke-linejoin:round;stroke:rgb(0%,0%,0%);stroke-opacity:1;stroke-miterlimit:4;" d="M -0.00019455 -0.00117207 L -3.501171 -0.00117207 " transform="matrix(1.333333,0,0,1.333333,68.504166,14.665625)"/>
<path style=" stroke:none;fill-rule:nonzero;fill:rgb(0%,0%,0%);fill-opacity:1;" d="M 37.359375 18.523438 L 39.507812 18.523438 L 39.507812 11.105469 L 37.167969 11.574219 L 37.167969 10.378906 L 39.492188 9.910156 L 40.808594 9.910156 L 40.808594 18.523438 L 42.957031 18.523438 L 42.957031 19.628906 L 37.359375 19.628906 Z M 37.359375 18.523438 "/>
<path style=" stroke:none;fill-rule:nonzero;fill:rgb(0%,0%,0%);fill-opacity:1;" d="M 48.425781 10.773438 C 47.75 10.773438 47.238281 11.109375 46.898438 11.773438 C 46.558594 12.441406 46.386719 13.441406 46.386719 14.777344 C 46.386719 16.109375 46.558594 17.109375 46.898438 17.777344 C 47.238281 18.445312 47.75 18.777344 48.425781 18.777344 C 49.105469 18.777344 49.617188 18.445312 49.957031 17.777344 C 50.300781 17.109375 50.46875 16.109375 50.46875 14.777344 C 50.46875 13.441406 50.300781 12.441406 49.957031 11.773438 C 49.617188 11.109375 49.105469 10.773438 48.425781 10.773438 Z M 48.425781 9.734375 C 49.515625 9.734375 50.347656 10.164062 50.921875 11.027344 C 51.496094 11.886719 51.785156 13.140625 51.785156 14.777344 C 51.785156 16.414062 51.496094 17.664062 50.921875 18.527344 C 50.347656 19.386719 49.515625 19.820312 48.425781 19.820312 C 47.335938 19.820312 46.503906 19.386719 45.929688 18.527344 C 45.355469 17.664062 45.066406 16.414062 45.066406 14.777344 C 45.066406 13.140625 45.355469 11.886719 45.929688 11.027344 C 46.503906 10.164062 47.335938 9.734375 48.425781 9.734375 Z M 48.425781 9.734375 "/>
<path style=" stroke:none;fill-rule:nonzero;fill:rgb(0%,0%,0%);fill-opacity:1;" d="M 54.589844 13.75 L 57.800781 13.75 L 57.800781 14.523438 L 53.480469 14.523438 L 53.480469 13.75 C 53.832031 13.390625 54.308594 12.902344 54.910156 12.296875 C 55.511719 11.6875 55.890625 11.292969 56.046875 11.117188 C 56.339844 10.785156 56.546875 10.503906 56.664062 10.277344 C 56.78125 10.046875 56.839844 9.820312 56.839844 9.597656 C 56.839844 9.238281 56.714844 8.941406 56.460938 8.714844 C 56.207031 8.488281 55.875 8.371094 55.46875 8.371094 C 55.179688 8.371094 54.875 8.421875 54.554688 8.523438 C 54.234375 8.621094 53.890625 8.773438 53.527344 8.980469 L 53.527344 8.046875 C 53.898438 7.898438 54.242188 7.789062 54.566406 7.710938 C 54.886719 7.636719 55.183594 7.597656 55.449219 7.597656 C 56.15625 7.597656 56.71875 7.773438 57.136719 8.128906 C 57.554688 8.480469 57.765625 8.949219 57.765625 9.539062 C 57.765625 9.820312 57.710938 10.085938 57.609375 10.335938 C 57.503906 10.585938 57.3125 10.878906 57.035156 11.21875 C 56.960938 11.308594 56.71875 11.5625 56.3125 11.984375 C 55.90625 12.40625 55.332031 12.996094 54.589844 13.75 Z M 54.589844 13.75 "/>
<path style="fill:none;stroke-width:0.6;stroke-linecap:butt;stroke-linejoin:round;stroke:rgb(0%,0%,0%);stroke-opacity:1;stroke-miterlimit:4;" d="M -0.00019455 0.000549316 L -2.001171 0.000549316 " transform="matrix(1.333333,0,0,1.333333,68.504166,184.956299)"/>
<path style="fill:none;stroke-width:0.6;stroke-linecap:butt;stroke-linejoin:round;stroke:rgb(0%,0%,0%);stroke-opacity:1;stroke-miterlimit:4;" d="M -0.00019455 -0.000396729 L -2.001171 -0.000396729 " transform="matrix(1.333333,0,0,1.333333,68.504166,178.574748)"/>
<path style="fill:none;stroke-width:0.6;stroke-linecap:butt;stroke-linejoin:round;stroke:rgb(0%,0%,0%);stroke-opacity:1;stroke-miterlimit:4;" d="M -0.00019455 -0.0000762939 L -2.001171 -0.0000762939 " transform="matrix(1.333333,0,0,1.333333,68.504166,174.046977)"/>
<path style="fill:none;stroke-width:0.6;stroke-linecap:butt;stroke-linejoin:round;stroke:rgb(0%,0%,0%);stroke-opacity:1;stroke-miterlimit:4;" d="M -0.00019455 0.000152588 L -2.001171 0.000152588 " transform="matrix(1.333333,0,0,1.333333,68.504166,170.534953)"/>
<path style="fill:none;stroke-width:0.6;stroke-linecap:butt;stroke-linejoin:round;stroke:rgb(0%,0%,0%);stroke-opacity:1;stroke-miterlimit:4;" d="M -0.00019455 -0.00102234 L -2.001171 -0.00102234 " transform="matrix(1.333333,0,0,1.333333,68.504166,167.665426)"/>
<path style="fill:none;stroke-width:0.6;stroke-linecap:butt;stroke-linejoin:round;stroke:rgb(0%,0%,0%);stroke-opacity:1;stroke-miterlimit:4;" d="M -0.00019455 -0.000740051 L -2.001171 -0.000740051 " transform="matrix(1.333333,0,0,1.333333,68.504166,165.239268)"/>
<path style="fill:none;stroke-width:0.6;stroke-linecap:butt;stroke-linejoin:round;stroke:rgb(0%,0%,0%);stroke-opacity:1;stroke-miterlimit:4;" d="M -0.00019455 -0.000694275 L -2.001171 -0.000694275 " transform="matrix(1.333333,0,0,1.333333,68.504166,163.137644)"/>
<path style="fill:none;stroke-width:0.6;stroke-linecap:butt;stroke-linejoin:round;stroke:rgb(0%,0%,0%);stroke-opacity:1;stroke-miterlimit:4;" d="M -0.00019455 0.000961304 L -2.001171 0.000961304 " transform="matrix(1.333333,0,0,1.333333,68.504166,161.283875)"/>
<path style="fill:none;stroke-width:0.6;stroke-linecap:butt;stroke-linejoin:round;stroke:rgb(0%,0%,0%);stroke-opacity:1;stroke-miterlimit:4;" d="M -0.00019455 -0.001091 L -2.001171 -0.001091 " transform="matrix(1.333333,0,0,1.333333,68.504166,148.716298)"/>
<path style="fill:none;stroke-width:0.6;stroke-linecap:butt;stroke-linejoin:round;stroke:rgb(0%,0%,0%);stroke-opacity:1;stroke-miterlimit:4;" d="M -0.00019455 0.000892639 L -2.001171 0.000892639 " transform="matrix(1.333333,0,0,1.333333,68.504166,142.334747)"/>
<path style="fill:none;stroke-width:0.6;stroke-linecap:butt;stroke-linejoin:round;stroke:rgb(0%,0%,0%);stroke-opacity:1;stroke-miterlimit:4;" d="M -0.00019455 0.0012207 L -2.001171 0.0012207 " transform="matrix(1.333333,0,0,1.333333,68.504166,137.806966)"/>
<path style="fill:none;stroke-width:0.6;stroke-linecap:butt;stroke-linejoin:round;stroke:rgb(0%,0%,0%);stroke-opacity:1;stroke-miterlimit:4;" d="M -0.00019455 0.00144196 L -2.001171 0.00144196 " transform="matrix(1.333333,0,0,1.333333,68.504166,134.294952)"/>
<path style="fill:none;stroke-width:0.6;stroke-linecap:butt;stroke-linejoin:round;stroke:rgb(0%,0%,0%);stroke-opacity:1;stroke-miterlimit:4;" d="M -0.00019455 0.000267029 L -2.001171 0.000267029 " transform="matrix(1.333333,0,0,1.333333,68.504166,131.425425)"/>
<path style="fill:none;stroke-width:0.6;stroke-linecap:butt;stroke-linejoin:round;stroke:rgb(0%,0%,0%);stroke-opacity:1;stroke-miterlimit:4;" d="M -0.00019455 0.000549316 L -2.001171 0.000549316 " transform="matrix(1.333333,0,0,1.333333,68.504166,128.999268)"/>
<path style="fill:none;stroke-width:0.6;stroke-linecap:butt;stroke-linejoin:round;stroke:rgb(0%,0%,0%);stroke-opacity:1;stroke-miterlimit:4;" d="M -0.00019455 0.000595093 L -2.001171 0.000595093 " transform="matrix(1.333333,0,0,1.333333,68.504166,126.897644)"/>
<path style="fill:none;stroke-width:0.6;stroke-linecap:butt;stroke-linejoin:round;stroke:rgb(0%,0%,0%);stroke-opacity:1;stroke-miterlimit:4;" d="M -0.00019455 -0.000679016 L -2.001171 -0.000679016 " transform="matrix(1.333333,0,0,1.333333,68.504166,125.043874)"/>
<path style="fill:none;stroke-width:0.6;stroke-linecap:butt;stroke-linejoin:round;stroke:rgb(0%,0%,0%);stroke-opacity:1;stroke-miterlimit:4;" d="M -0.00019455 0.000198364 L -2.001171 0.000198364 " transform="matrix(1.333333,0,0,1.333333,68.504166,112.476298)"/>
<path style="fill:none;stroke-width:0.6;stroke-linecap:butt;stroke-linejoin:round;stroke:rgb(0%,0%,0%);stroke-opacity:1;stroke-miterlimit:4;" d="M -0.00019455 -0.000747681 L -2.001171 -0.000747681 " transform="matrix(1.333333,0,0,1.333333,68.504166,106.094747)"/>
<path style="fill:none;stroke-width:0.6;stroke-linecap:butt;stroke-linejoin:round;stroke:rgb(0%,0%,0%);stroke-opacity:1;stroke-miterlimit:4;" d="M -0.00019455 -0.000419617 L -2.001171 -0.000419617 " transform="matrix(1.333333,0,0,1.333333,68.504166,101.566966)"/>
<path style="fill:none;stroke-width:0.6;stroke-linecap:butt;stroke-linejoin:round;stroke:rgb(0%,0%,0%);stroke-opacity:1;stroke-miterlimit:4;" d="M -0.00019455 -0.000198364 L -2.001171 -0.000198364 " transform="matrix(1.333333,0,0,1.333333,68.504166,98.054952)"/>
<path style="fill:none;stroke-width:0.6;stroke-linecap:butt;stroke-linejoin:round;stroke:rgb(0%,0%,0%);stroke-opacity:1;stroke-miterlimit:4;" d="M -0.00019455 -0.00137329 L -2.001171 -0.00137329 " transform="matrix(1.333333,0,0,1.333333,68.504166,95.185425)"/>
<path style="fill:none;stroke-width:0.6;stroke-linecap:butt;stroke-linejoin:round;stroke:rgb(0%,0%,0%);stroke-opacity:1;stroke-miterlimit:4;" d="M -0.00019455 -0.001091 L -2.001171 -0.001091 " transform="matrix(1.333333,0,0,1.333333,68.504166,92.759267)"/>
<path style="fill:none;stroke-width:0.6;stroke-linecap:butt;stroke-linejoin:round;stroke:rgb(0%,0%,0%);stroke-opacity:1;stroke-miterlimit:4;" d="M -0.00019455 -0.00104523 L -2.001171 -0.00104523 " transform="matrix(1.333333,0,0,1.333333,68.504166,90.657644)"/>
<path style="fill:none;stroke-width:0.6;stroke-linecap:butt;stroke-linejoin:round;stroke:rgb(0%,0%,0%);stroke-opacity:1;stroke-miterlimit:4;" d="M -0.00019455 0.000610352 L -2.001171 0.000610352 " transform="matrix(1.333333,0,0,1.333333,68.504166,88.803874)"/>
<path style="fill:none;stroke-width:0.6;stroke-linecap:butt;stroke-linejoin:round;stroke:rgb(0%,0%,0%);stroke-opacity:1;stroke-miterlimit:4;" d="M -0.00019455 -0.00144196 L -2.001171 -0.00144196 " transform="matrix(1.333333,0,0,1.333333,68.504166,76.236298)"/>
<path style="fill:none;stroke-width:0.6;stroke-linecap:butt;stroke-linejoin:round;stroke:rgb(0%,0%,0%);stroke-opacity:1;stroke-miterlimit:4;" d="M -0.00019455 0.000537872 L -2.001171 0.000537872 " transform="matrix(1.333333,0,0,1.333333,68.504166,69.854752)"/>
<path style="fill:none;stroke-width:0.6;stroke-linecap:butt;stroke-linejoin:round;stroke:rgb(0%,0%,0%);stroke-opacity:1;stroke-miterlimit:4;" d="M -0.00019455 0.000865936 L -2.001171 0.000865936 " transform="matrix(1.333333,0,0,1.333333,68.504166,65.32697)"/>
<path style="fill:none;stroke-width:0.6;stroke-linecap:butt;stroke-linejoin:round;stroke:rgb(0%,0%,0%);stroke-opacity:1;stroke-miterlimit:4;" d="M -0.00019455 0.001091 L -2.001171 0.001091 " transform="matrix(1.333333,0,0,1.333333,68.504166,61.814952)"/>
<path style="fill:none;stroke-width:0.6;stroke-linecap:butt;stroke-linejoin:round;stroke:rgb(0%,0%,0%);stroke-opacity:1;stroke-miterlimit:4;" d="M -0.00019455 -0.0000839233 L -2.001171 -0.0000839233 " transform="matrix(1.333333,0,0,1.333333,68.504166,58.945424)"/>
<path style="fill:none;stroke-width:0.6;stroke-linecap:butt;stroke-linejoin:round;stroke:rgb(0%,0%,0%);stroke-opacity:1;stroke-miterlimit:4;" d="M -0.00019455 0.00019455 L -2.001171 0.00019455 " transform="matrix(1.333333,0,0,1.333333,68.504166,56.519272)"/>
<path style="fill:none;stroke-width:0.6;stroke-linecap:butt;stroke-linejoin:round;stroke:rgb(0%,0%,0%);stroke-opacity:1;stroke-miterlimit:4;" d="M -0.00019455 0.000244141 L -2.001171 0.000244141 " transform="matrix(1.333333,0,0,1.333333,68.504166,54.417643)"/>
<path style="fill:none;stroke-width:0.6;stroke-linecap:butt;stroke-linejoin:round;stroke:rgb(0%,0%,0%);stroke-opacity:1;stroke-miterlimit:4;" d="M -0.00019455 -0.00103378 L -2.001171 -0.00103378 " transform="matrix(1.333333,0,0,1.333333,68.504166,52.563878)"/>
<path style="fill:none;stroke-width:0.6;stroke-linecap:butt;stroke-linejoin:round;stroke:rgb(0%,0%,0%);stroke-opacity:1;stroke-miterlimit:4;" d="M -0.00019455 -0.000152588 L -2.001171 -0.000152588 " transform="matrix(1.333333,0,0,1.333333,68.504166,39.996297)"/>
<path style="fill:none;stroke-width:0.6;stroke-linecap:butt;stroke-linejoin:round;stroke:rgb(0%,0%,0%);stroke-opacity:1;stroke-miterlimit:4;" d="M -0.00019455 -0.00110245 L -2.001171 -0.00110245 " transform="matrix(1.333333,0,0,1.333333,68.504166,33.614751)"/>
<path style="fill:none;stroke-width:0.6;stroke-linecap:butt;stroke-linejoin:round;stroke:rgb(0%,0%,0%);stroke-opacity:1;stroke-miterlimit:4;" d="M -0.00019455 -0.000774384 L -2.001171 -0.000774384 " transform="matrix(1.333333,0,0,1.333333,68.504166,29.08697)"/>
<path style="fill:none;stroke-width:0.6;stroke-linecap:butt;stroke-linejoin:round;stroke:rgb(0%,0%,0%);stroke-opacity:1;stroke-miterlimit:4;" d="M -0.00019455 -0.000549316 L -2.001171 -0.000549316 " transform="matrix(1.333333,0,0,1.333333,68.504166,25.574951)"/>
<path style="fill:none;stroke-width:0.6;stroke-linecap:butt;stroke-linejoin:round;stroke:rgb(0%,0%,0%);stroke-opacity:1;stroke-miterlimit:4;" d="M -0.00019455 0.00120544 L -2.001171 0.00120544 " transform="matrix(1.333333,0,0,1.333333,68.504166,22.705424)"/>
<path style="fill:none;stroke-width:0.6;stroke-linecap:butt;stroke-linejoin:round;stroke:rgb(0%,0%,0%);stroke-opacity:1;stroke-miterlimit:4;" d="M -0.00019455 -0.00144577 L -2.001171 -0.00144577 " transform="matrix(1.333333,0,0,1.333333,68.504166,20.279271)"/>
<path style="fill:none;stroke-width:0.6;stroke-linecap:butt;stroke-linejoin:round;stroke:rgb(0%,0%,0%);stroke-opacity:1;stroke-miterlimit:4;" d="M -0.00019455 -0.00139713 L -2.001171 -0.00139713 " transform="matrix(1.333333,0,0,1.333333,68.504166,18.177644)"/>
<path style="fill:none;stroke-width:0.6;stroke-linecap:butt;stroke-linejoin:round;stroke:rgb(0%,0%,0%);stroke-opacity:1;stroke-miterlimit:4;" d="M -0.00019455 0.000257492 L -2.001171 0.000257492 " transform="matrix(1.333333,0,0,1.333333,68.504166,16.323875)"/>
<path style=" stroke:none;fill-rule:nonzero;fill:rgb(0%,0%,0%);fill-opacity:1;" d="M 9.601562 116.886719 L 9.601562 115.6875 L 19.730469 115.6875 L 19.730469 116.886719 Z M 9.601562 116.886719 "/>
<path style=" stroke:none;fill-rule:nonzero;fill:rgb(0%,0%,0%);fill-opacity:1;" d="M 13.277344 110.355469 C 13.277344 111 13.53125 111.507812 14.03125 111.878906 C 14.53125 112.253906 15.21875 112.441406 16.089844 112.441406 C 16.964844 112.441406 17.652344 112.253906 18.152344 111.882812 C 18.652344 111.511719 18.902344 111.003906 18.902344 110.355469 C 18.902344 109.71875 18.652344 109.210938 18.148438 108.839844 C 17.644531 108.464844 16.960938 108.28125 16.089844 108.28125 C 15.226562 108.28125 14.542969 108.464844 14.039062 108.839844 C 13.53125 109.210938 13.277344 109.71875 13.277344 110.355469 Z M 12.265625 110.355469 C 12.265625 109.316406 12.601562 108.496094 13.28125 107.902344 C 13.957031 107.308594 14.894531 107.007812 16.089844 107.007812 C 17.285156 107.007812 18.222656 107.308594 18.902344 107.902344 C 19.582031 108.496094 19.921875 109.316406 19.921875 110.355469 C 19.921875 111.402344 19.582031 112.222656 18.902344 112.816406 C 18.222656 113.40625 17.285156 113.703125 16.089844 113.703125 C 14.894531 113.703125 13.957031 113.40625 13.28125 112.816406 C 12.601562 112.222656 12.265625 111.402344 12.265625 110.355469 Z M 12.265625 110.355469 "/>
<path style=" stroke:none;fill-rule:nonzero;fill:rgb(0%,0%,0%);fill-opacity:1;" d="M 12.652344 100.375 L 13.789062 100.375 C 13.613281 100.714844 13.484375 101.066406 13.398438 101.429688 C 13.308594 101.792969 13.265625 102.171875 13.265625 102.5625 C 13.265625 103.160156 13.359375 103.605469 13.539062 103.902344 C 13.722656 104.199219 13.996094 104.347656 14.359375 104.347656 C 14.636719 104.347656 14.855469 104.242188 15.015625 104.027344 C 15.171875 103.816406 15.324219 103.386719 15.464844 102.746094 L 15.558594 102.335938 C 15.742188 101.484375 15.996094 100.878906 16.328125 100.523438 C 16.660156 100.164062 17.125 99.984375 17.71875 99.984375 C 18.398438 99.984375 18.933594 100.253906 19.328125 100.789062 C 19.722656 101.324219 19.921875 102.0625 19.921875 103 C 19.921875 103.390625 19.882812 103.796875 19.804688 104.21875 C 19.730469 104.644531 19.617188 105.089844 19.464844 105.558594 L 18.226562 105.558594 C 18.457031 105.113281 18.628906 104.679688 18.746094 104.25 C 18.859375 103.820312 18.917969 103.394531 18.917969 102.972656 C 18.917969 102.410156 18.820312 101.976562 18.628906 101.671875 C 18.433594 101.367188 18.160156 101.214844 17.808594 101.214844 C 17.484375 101.214844 17.234375 101.324219 17.0625 101.546875 C 16.890625 101.761719 16.722656 102.242188 16.558594 102.988281 L 16.460938 103.402344 C 16.308594 104.144531 16.066406 104.679688 15.742188 105.011719 C 15.421875 105.339844 14.976562 105.503906 14.414062 105.503906 C 13.726562 105.503906 13.195312 105.261719 12.824219 104.777344 C 12.453125 104.289062 12.265625 103.601562 12.265625 102.707031 C 12.265625 102.265625 12.296875 101.847656 12.363281 101.457031 C 12.425781 101.066406 12.523438 100.707031 12.652344 100.375 Z M 12.652344 100.375 "/>
<path style=" stroke:none;fill-rule:nonzero;fill:rgb(0%,0%,0%);fill-opacity:1;" d="M 12.652344 93.429688 L 13.789062 93.429688 C 13.613281 93.765625 13.484375 94.117188 13.398438 94.484375 C 13.308594 94.847656 13.265625 95.226562 13.265625 95.617188 C 13.265625 96.210938 13.359375 96.65625 13.539062 96.953125 C 13.722656 97.253906 13.996094 97.402344 14.359375 97.402344 C 14.636719 97.402344 14.855469 97.292969 15.015625 97.082031 C 15.171875 96.871094 15.324219 96.441406 15.464844 95.796875 L 15.558594 95.386719 C 15.742188 94.539062 15.996094 93.933594 16.328125 93.574219 C 16.660156 93.21875 17.125 93.039062 17.71875 93.039062 C 18.398438 93.039062 18.933594 93.304688 19.328125 93.84375 C 19.722656 94.378906 19.921875 95.117188 19.921875 96.054688 C 19.921875 96.441406 19.882812 96.851562 19.804688 97.273438 C 19.730469 97.699219 19.617188 98.144531 19.464844 98.609375 L 18.226562 98.609375 C 18.457031 98.167969 18.628906 97.730469 18.746094 97.304688 C 18.859375 96.875 18.917969 96.449219 18.917969 96.027344 C 18.917969 95.460938 18.820312 95.027344 18.628906 94.726562 C 18.433594 94.421875 18.160156 94.269531 17.808594 94.269531 C 17.484375 94.269531 17.234375 94.378906 17.0625 94.597656 C 16.890625 94.816406 16.722656 95.296875 16.558594 96.039062 L 16.460938 96.457031 C 16.308594 97.199219 16.066406 97.734375 15.742188 98.066406 C 15.421875 98.394531 14.976562 98.558594 14.414062 98.558594 C 13.726562 98.558594 13.195312 98.316406 12.824219 97.828125 C 12.453125 97.34375 12.265625 96.652344 12.265625 95.757812 C 12.265625 95.316406 12.296875 94.902344 12.363281 94.511719 C 12.425781 94.121094 12.523438 93.757812 12.652344 93.429688 Z M 12.652344 93.429688 "/>
<g clip-path="url(#clip13)" clip-rule="nonzero">
<path style="fill:none;stroke-width:1.5;stroke-linecap:square;stroke-linejoin:round;stroke:rgb(12.156863%,46.666667%,70.588237%);stroke-opacity:1;stroke-miterlimit:4;" d="M 51.37793 28.174805 L 53.853516 63.307617 L 56.458008 79.734375 L 59.06543 86.730469 L 61.669922 90.547852 L 64.277344 93.571289 L 66.881836 96.172852 L 69.489258 98.390625 L 72.09375 100.250977 L 74.698242 101.780273 L 77.305664 103.03418 L 79.910156 104.050781 L 82.517578 104.888672 L 85.12207 105.585937 L 87.729492 106.174805 L 90.333984 106.681641 L 92.938477 107.132812 L 95.545898 107.537109 L 98.150391 107.90918 L 100.757812 108.257812 L 103.362305 108.585937 L 105.969727 108.899414 L 108.574219 109.201172 L 111.178711 109.491211 L 113.786133 109.775391 L 116.390625 110.050781 L 118.998047 110.317383 L 121.602539 110.581055 L 124.207031 110.835937 L 126.814453 111.084961 L 129.418945 111.328125 L 132.026367 111.56543 L 134.630859 111.799805 L 137.238281 112.025391 L 139.842773 112.248047 L 142.447266 112.464844 L 145.054688 112.675781 L 147.65918 112.880859 L 150.266602 113.080078 L 152.871094 113.276367 L 155.478516 113.466797 L 158.083008 113.651367 L 160.6875 113.833008 L 163.294922 114.005859 L 165.899414 114.178711 L 168.506836 114.342773 L 171.111328 114.503906 L 173.71875 114.65918 L 176.323242 114.811523 L 178.927734 114.958008 L 181.535156 115.101562 L 184.139648 115.242187 L 186.74707 115.374023 L 189.351562 115.505859 L 191.958984 115.631836 L 194.563477 115.754883 L 197.167969 115.87207 L 199.775391 115.986328 L 202.379883 116.094727 L 204.987305 116.203125 L 207.591797 116.308594 L 210.199219 116.408203 L 212.803711 116.504883 L 215.408203 116.598633 L 218.015625 116.689453 L 220.620117 116.774414 L 223.227539 116.859375 L 225.832031 116.941406 L 228.436523 117.020508 L 231.043945 117.09375 L 233.648438 117.166992 L 236.255859 117.237305 L 238.860352 117.304687 L 241.467773 117.37207 L 246.676758 117.495117 " transform="matrix(1.333333,0,0,1.333333,0,0.000000000000014211)"/>
</g>
<g clip-path="url(#clip14)" clip-rule="nonzero">
<path style="fill:none;stroke-width:1.5;stroke-linecap:butt;stroke-linejoin:round;stroke:rgb(74.901962%,0%,74.901962%);stroke-opacity:1;stroke-dasharray:5.55,2.4;stroke-miterlimit:4;" d="M 51.37793 23.783203 L 53.853516 57.981445 L 56.458008 71.53125 L 59.06543 75.533203 L 61.669922 78.196289 L 64.277344 80.748047 L 66.881836 83.077148 L 69.489258 85.113281 L 72.09375 86.926758 L 74.698242 88.368164 L 77.305664 89.604492 L 79.910156 90.65625 L 82.517578 91.535156 L 85.12207 92.232422 L 87.729492 92.915039 L 90.333984 93.539062 L 92.938477 94.001953 L 95.545898 94.532227 L 98.150391 94.921875 L 100.757812 95.411133 L 103.362305 95.897461 L 105.969727 96.351562 L 108.574219 96.802734 L 111.178711 97.139648 L 113.786133 97.579102 L 116.390625 97.998047 L 118.998047 98.373047 L 121.602539 98.838867 L 124.207031 99.228516 L 126.814453 99.600586 L 129.418945 100.016602 L 132.026367 100.453125 L 134.630859 100.866211 L 137.238281 101.176758 L 139.842773 101.613281 L 142.447266 102.00293 L 145.054688 102.28418 L 147.65918 102.711914 L 150.266602 103.03418 L 152.871094 103.476562 L 155.478516 103.875 L 158.083008 104.206055 L 160.6875 104.513672 L 163.294922 104.862305 L 165.899414 105.169922 L 168.506836 105.459961 L 171.111328 105.817383 L 173.71875 106.133789 L 176.323242 106.464844 L 178.927734 106.763672 L 181.535156 107.094727 L 184.139648 107.408203 L 186.74707 107.686523 L 189.351562 107.950195 L 191.958984 108.325195 L 194.563477 108.55957 L 197.167969 108.870117 L 199.775391 109.078125 L 202.379883 109.283203 L 204.987305 109.608398 L 207.591797 109.895508 L 210.199219 110.147461 L 212.803711 110.381836 L 215.408203 110.560547 L 218.015625 110.821289 L 220.620117 111.032227 L 223.227539 111.219727 L 225.832031 111.553711 L 228.436523 111.703125 L 231.043945 111.878906 L 233.648438 112.048828 L 236.255859 112.245117 L 238.860352 112.40918 L 241.467773 112.579102 L 244.072266 112.866211 L 246.676758 112.942383 " transform="matrix(1.333333,0,0,1.333333,0,0.000000000000014211)"/>
</g>
<path style="fill:none;stroke-width:0.8;stroke-linecap:square;stroke-linejoin:miter;stroke:rgb(0%,0%,0%);stroke-opacity:1;stroke-miterlimit:4;" d="M 51.37793 146.900391 L 51.37793 10.998047 " transform="matrix(1.333333,0,0,1.333333,0,0.000000000000014211)"/>
<path style="fill:none;stroke-width:0.8;stroke-linecap:square;stroke-linejoin:miter;stroke:rgb(0%,0%,0%);stroke-opacity:1;stroke-miterlimit:4;" d="M 246.676758 146.900391 L 246.676758 10.998047 " transform="matrix(1.333333,0,0,1.333333,0,0.000000000000014211)"/>
<path style="fill:none;stroke-width:0.8;stroke-linecap:square;stroke-linejoin:miter;stroke:rgb(0%,0%,0%);stroke-opacity:1;stroke-miterlimit:4;" d="M 51.37793 146.900391 L 246.676758 146.900391 " transform="matrix(1.333333,0,0,1.333333,0,0.000000000000014211)"/>
<path style="fill:none;stroke-width:0.8;stroke-linecap:square;stroke-linejoin:miter;stroke:rgb(0%,0%,0%);stroke-opacity:1;stroke-miterlimit:4;" d="M 51.37793 10.998047 L 246.676758 10.998047 " transform="matrix(1.333333,0,0,1.333333,0,0.000000000000014211)"/>
<use xlink:href="#surface5" mask="url(#mask0)"/>
<path style="fill:none;stroke-width:1.5;stroke-linecap:square;stroke-linejoin:round;stroke:rgb(12.156863%,46.666667%,70.588237%);stroke-opacity:1;stroke-miterlimit:4;" d="M 186.404297 24.09668 L 206.402344 24.09668 " transform="matrix(1.333333,0,0,1.333333,0,0.000000000000014211)"/>
<path style=" stroke:none;fill-rule:nonzero;fill:rgb(0%,0%,0%);fill-opacity:1;" d="M 288.3125 27.433594 L 288.3125 29.503906 L 290.777344 29.503906 L 290.777344 30.4375 L 288.3125 30.4375 L 288.3125 34.394531 C 288.3125 34.988281 288.394531 35.371094 288.554688 35.539062 C 288.71875 35.710938 289.050781 35.792969 289.550781 35.792969 L 290.777344 35.792969 L 290.777344 36.796875 L 289.550781 36.796875 C 288.625 36.796875 287.988281 36.625 287.636719 36.28125 C 287.285156 35.933594 287.109375 35.304688 287.109375 34.394531 L 287.109375 30.4375 L 286.230469 30.4375 L 286.230469 29.503906 L 287.109375 29.503906 L 287.109375 27.433594 Z M 288.3125 27.433594 "/>
<path style=" stroke:none;fill-rule:nonzero;fill:rgb(0%,0%,0%);fill-opacity:1;" d="M 296.578125 30.625 C 296.445312 30.546875 296.296875 30.488281 296.140625 30.453125 C 295.980469 30.414062 295.808594 30.398438 295.617188 30.398438 C 294.941406 30.398438 294.417969 30.617188 294.058594 31.058594 C 293.695312 31.496094 293.511719 32.128906 293.511719 32.957031 L 293.511719 36.796875 L 292.308594 36.796875 L 292.308594 29.503906 L 293.511719 29.503906 L 293.511719 30.636719 C 293.765625 30.195312 294.09375 29.867188 294.496094 29.652344 C 294.902344 29.4375 295.390625 29.332031 295.96875 29.332031 C 296.050781 29.332031 296.140625 29.335938 296.242188 29.347656 C 296.34375 29.355469 296.453125 29.371094 296.574219 29.394531 Z M 296.578125 30.625 "/>
<path style=" stroke:none;fill-rule:nonzero;fill:rgb(0%,0%,0%);fill-opacity:1;" d="M 301.152344 33.132812 C 300.183594 33.132812 299.511719 33.242188 299.140625 33.464844 C 298.765625 33.683594 298.578125 34.0625 298.578125 34.597656 C 298.578125 35.023438 298.71875 35.359375 299 35.609375 C 299.28125 35.859375 299.660156 35.980469 300.140625 35.980469 C 300.804688 35.980469 301.339844 35.746094 301.742188 35.277344 C 302.140625 34.804688 302.34375 34.179688 302.34375 33.398438 L 302.34375 33.132812 Z M 303.539062 32.636719 L 303.539062 36.796875 L 302.34375 36.796875 L 302.34375 35.691406 C 302.070312 36.132812 301.726562 36.457031 301.320312 36.667969 C 300.910156 36.882812 300.414062 36.988281 299.820312 36.988281 C 299.078125 36.988281 298.484375 36.777344 298.039062 36.355469 C 297.601562 35.9375 297.378906 35.375 297.378906 34.675781 C 297.378906 33.855469 297.65625 33.238281 298.203125 32.820312 C 298.753906 32.402344 299.574219 32.195312 300.660156 32.195312 L 302.34375 32.195312 L 302.34375 32.074219 C 302.34375 31.523438 302.160156 31.097656 301.800781 30.796875 C 301.4375 30.496094 300.925781 30.34375 300.273438 30.34375 C 299.855469 30.34375 299.449219 30.394531 299.054688 30.496094 C 298.660156 30.59375 298.28125 30.746094 297.914062 30.945312 L 297.914062 29.835938 C 298.351562 29.667969 298.777344 29.539062 299.191406 29.457031 C 299.601562 29.371094 300.003906 29.332031 300.394531 29.332031 C 301.449219 29.332031 302.238281 29.605469 302.757812 30.152344 C 303.28125 30.695312 303.539062 31.523438 303.539062 32.636719 Z M 303.539062 32.636719 "/>
<path style=" stroke:none;fill-rule:nonzero;fill:rgb(0%,0%,0%);fill-opacity:1;" d="M 306.007812 29.503906 L 307.207031 29.503906 L 307.207031 36.796875 L 306.007812 36.796875 Z M 306.007812 26.664062 L 307.207031 26.664062 L 307.207031 28.183594 L 306.007812 28.183594 Z M 306.007812 26.664062 "/>
<path style=" stroke:none;fill-rule:nonzero;fill:rgb(0%,0%,0%);fill-opacity:1;" d="M 315.773438 32.394531 L 315.773438 36.796875 L 314.578125 36.796875 L 314.578125 32.433594 C 314.578125 31.742188 314.441406 31.226562 314.171875 30.886719 C 313.902344 30.542969 313.5 30.371094 312.960938 30.371094 C 312.316406 30.371094 311.804688 30.578125 311.429688 30.992188 C 311.058594 31.402344 310.871094 31.964844 310.871094 32.675781 L 310.871094 36.796875 L 309.664062 36.796875 L 309.664062 29.503906 L 310.871094 29.503906 L 310.871094 30.636719 C 311.15625 30.199219 311.496094 29.871094 311.882812 29.65625 C 312.269531 29.4375 312.71875 29.332031 313.226562 29.332031 C 314.066406 29.332031 314.699219 29.589844 315.128906 30.105469 C 315.558594 30.625 315.773438 31.386719 315.773438 32.394531 Z M 315.773438 32.394531 "/>
<path style="fill:none;stroke-width:1.5;stroke-linecap:butt;stroke-linejoin:round;stroke:rgb(74.901962%,0%,74.901962%);stroke-opacity:1;stroke-dasharray:5.55,2.4;stroke-miterlimit:4;" d="M 186.404297 38.774414 L 206.402344 38.774414 " transform="matrix(1.333333,0,0,1.333333,0,0.000000000000014211)"/>
<path style=" stroke:none;fill-rule:nonzero;fill:rgb(0%,0%,0%);fill-opacity:1;" d="M 288.3125 47.003906 L 288.3125 49.074219 L 290.777344 49.074219 L 290.777344 50.007812 L 288.3125 50.007812 L 288.3125 53.964844 C 288.3125 54.558594 288.394531 54.941406 288.554688 55.113281 C 288.71875 55.28125 289.050781 55.367188 289.550781 55.367188 L 290.777344 55.367188 L 290.777344 56.367188 L 289.550781 56.367188 C 288.625 56.367188 287.988281 56.195312 287.636719 55.851562 C 287.285156 55.503906 287.109375 54.875 287.109375 53.964844 L 287.109375 50.007812 L 286.230469 50.007812 L 286.230469 49.074219 L 287.109375 49.074219 L 287.109375 47.003906 Z M 288.3125 47.003906 "/>
<path style=" stroke:none;fill-rule:nonzero;fill:rgb(0%,0%,0%);fill-opacity:1;" d="M 298.59375 52.421875 L 298.59375 53.007812 L 293.085938 53.007812 C 293.136719 53.832031 293.386719 54.460938 293.828125 54.894531 C 294.273438 55.324219 294.894531 55.539062 295.6875 55.539062 C 296.148438 55.539062 296.59375 55.484375 297.027344 55.371094 C 297.457031 55.257812 297.886719 55.089844 298.3125 54.863281 L 298.3125 55.996094 C 297.882812 56.179688 297.441406 56.316406 296.992188 56.414062 C 296.539062 56.507812 296.082031 56.558594 295.617188 56.558594 C 294.453125 56.558594 293.53125 56.21875 292.851562 55.542969 C 292.171875 54.863281 291.835938 53.949219 291.835938 52.792969 C 291.835938 51.601562 292.15625 50.652344 292.800781 49.953125 C 293.445312 49.25 294.316406 48.902344 295.410156 48.902344 C 296.390625 48.902344 297.164062 49.21875 297.734375 49.847656 C 298.308594 50.480469 298.59375 51.335938 298.59375 52.421875 Z M 297.394531 52.070312 C 297.386719 51.414062 297.203125 50.894531 296.84375 50.503906 C 296.484375 50.113281 296.011719 49.914062 295.421875 49.914062 C 294.753906 49.914062 294.21875 50.105469 293.816406 50.480469 C 293.417969 50.859375 293.183594 51.390625 293.125 52.078125 Z M 297.394531 52.070312 "/>
<path style=" stroke:none;fill-rule:nonzero;fill:rgb(0%,0%,0%);fill-opacity:1;" d="M 305.207031 49.289062 L 305.207031 50.425781 C 304.867188 50.25 304.515625 50.121094 304.152344 50.035156 C 303.789062 49.945312 303.410156 49.902344 303.019531 49.902344 C 302.425781 49.902344 301.976562 49.992188 301.679688 50.175781 C 301.382812 50.359375 301.234375 50.632812 301.234375 50.996094 C 301.234375 51.273438 301.339844 51.492188 301.554688 51.652344 C 301.765625 51.808594 302.195312 51.960938 302.835938 52.101562 L 303.246094 52.195312 C 304.097656 52.375 304.703125 52.632812 305.058594 52.964844 C 305.417969 53.296875 305.597656 53.761719 305.597656 54.355469 C 305.597656 55.03125 305.328125 55.570312 304.792969 55.964844 C 304.257812 56.359375 303.519531 56.558594 302.582031 56.558594 C 302.191406 56.558594 301.785156 56.519531 301.363281 56.441406 C 300.9375 56.367188 300.492188 56.253906 300.023438 56.101562 L 300.023438 54.863281 C 300.46875 55.09375 300.902344 55.265625 301.332031 55.382812 C 301.761719 55.496094 302.1875 55.554688 302.609375 55.554688 C 303.175781 55.554688 303.605469 55.457031 303.910156 55.261719 C 304.214844 55.070312 304.367188 54.796875 304.367188 54.445312 C 304.367188 54.121094 304.257812 53.871094 304.039062 53.699219 C 303.820312 53.523438 303.339844 53.359375 302.59375 53.195312 L 302.179688 53.097656 C 301.4375 52.945312 300.902344 52.703125 300.570312 52.378906 C 300.242188 52.054688 300.078125 51.613281 300.078125 51.050781 C 300.078125 50.363281 300.320312 49.832031 300.804688 49.460938 C 301.292969 49.085938 301.980469 48.902344 302.875 48.902344 C 303.320312 48.902344 303.734375 48.933594 304.125 49 C 304.515625 49.0625 304.875 49.160156 305.207031 49.289062 Z M 305.207031 49.289062 "/>
<path style=" stroke:none;fill-rule:nonzero;fill:rgb(0%,0%,0%);fill-opacity:1;" d="M 308.691406 47.003906 L 308.691406 49.074219 L 311.15625 49.074219 L 311.15625 50.007812 L 308.691406 50.007812 L 308.691406 53.964844 C 308.691406 54.558594 308.769531 54.941406 308.933594 55.113281 C 309.097656 55.28125 309.425781 55.367188 309.925781 55.367188 L 311.15625 55.367188 L 311.15625 56.367188 L 309.925781 56.367188 C 309.003906 56.367188 308.363281 56.195312 308.011719 55.851562 C 307.660156 55.503906 307.484375 54.875 307.484375 53.964844 L 307.484375 50.007812 L 306.605469 50.007812 L 306.605469 49.074219 L 307.484375 49.074219 L 307.484375 47.003906 Z M 308.691406 47.003906 "/>
</g>
</svg>
